<svg width="574" height="449" viewBox="0 0 574 449" fill="none" xmlns="http://www.w3.org/2000/svg">
<path d="M234.61 1.30469C260.415 1.6316 281.233 22.6519 281.233 48.5342L281.225 49.418C280.892 67.5541 270.335 83.1837 255.086 90.8047C252.109 105.197 254.085 119.87 258.759 133.594C268.171 135.489 276.922 139.21 284.625 144.37C317.486 128.903 338.845 98.919 350.564 73.1641C349.998 70.2403 349.7 67.2215 349.7 64.1348C349.7 38.0486 370.847 16.9004 396.934 16.9004C423.02 16.9006 444.167 38.0487 444.167 64.1348C444.167 90.2207 423.02 111.368 396.934 111.368C393.958 111.368 391.047 111.087 388.223 110.56C362.748 120.489 343.775 136.691 330.047 154.268H324.593C338.96 135.027 359.322 117.029 387.232 106.293L387.82 106.067L388.438 106.191C391.183 106.743 394.024 107.034 396.934 107.034L398.041 107.021C420.854 106.442 439.241 88.0551 439.819 65.2422L439.833 64.1348C439.833 40.8121 421.222 21.8356 398.041 21.248L396.934 21.2344C373.241 21.2344 354.034 40.4417 354.034 64.1348L354.049 65.2686C354.117 67.9064 354.424 70.4837 354.947 72.9805L355.093 73.6709L354.803 74.3145C342.779 101.024 320.392 132.794 285.326 148.826L284.202 149.34L283.188 148.635C275.398 143.218 266.422 139.389 256.73 137.615L255.495 137.39L255.077 136.206C249.816 121.301 247.471 104.982 251.074 88.8477L251.305 87.8125L252.265 87.3604C266.827 80.497 276.899 65.6906 276.899 48.5342C276.899 24.8413 257.693 5.6349 234 5.63477C210.307 5.63483 191.101 24.8413 191.101 48.5342C191.101 63.5673 198.833 76.7934 210.547 84.457L211.107 84.8184L211.856 85.292L212.059 86.1553C215.505 100.863 216.157 120.368 209.604 145.349L209.385 146.186L208.649 146.642C206.275 148.111 203.996 149.722 201.828 151.463L200.992 152.134L199.952 151.877C176.903 146.179 150.172 134.373 130.097 112.407L129.497 111.751L129.531 110.863C129.542 110.582 129.55 110.303 129.557 110.026L129.566 109.201C129.566 85.8786 110.955 66.903 87.7744 66.3154L86.667 66.3018C62.974 66.3018 43.7676 85.5082 43.7676 109.201L43.7812 110.309C44.3687 133.49 63.3443 152.101 86.667 152.101L87.4092 152.095C91.1149 152.032 94.7038 151.496 98.1211 150.552L98.6875 150.396L99.2549 150.547C126.343 157.749 158.424 172.518 176.132 199.04L176.537 199.646L176.493 200.374C176.41 201.751 176.367 203.138 176.367 204.534C176.367 210.702 177.187 216.675 178.723 222.351L178.992 223.349L178.387 224.187C163.008 245.466 141.842 256.684 122.637 261.92L121.873 262.128L121.155 261.795C115.849 259.335 109.955 257.925 103.736 257.839L103.134 257.835C79.4407 257.835 60.2334 277.041 60.2334 300.734C60.2334 324.427 79.4407 343.634 103.134 343.634L104.241 343.62C127.422 343.032 146.033 324.057 146.033 300.734C146.033 299.542 145.982 298.358 145.886 297.184L145.803 296.177L146.521 295.467C168.354 273.874 186.456 262.771 200.764 258.008L201.861 257.643L202.775 258.351C207 261.623 211.621 264.409 216.552 266.624L217.542 267.06L218.661 267.541L218.831 268.747C223.999 305.388 209.023 337.34 191.912 359.296L191.525 359.792L190.934 360.004C174.356 365.941 162.5 381.789 162.5 400.401L162.514 401.509C163.101 424.69 182.078 443.301 205.4 443.301L206.508 443.287C229.321 442.709 247.708 424.322 248.286 401.509L248.3 400.401C248.3 390.018 244.613 380.5 238.476 373.079L238.022 372.53L237.982 371.82C235.633 330.17 247.337 295.529 260.986 271.216L261.431 270.424L262.307 270.186C263.058 269.981 263.803 269.763 264.544 269.534H268.743C282.533 281.574 298.528 300.278 311.933 328.206L312.344 329.062L311.992 329.944C310.041 334.847 308.967 340.196 308.967 345.801C308.967 369.494 328.174 388.701 351.867 388.701L352.975 388.688C376.155 388.1 394.767 369.123 394.767 345.801C394.766 322.871 376.775 304.142 354.141 302.961L353.623 302.934L353.174 302.675C339.477 294.799 323.709 283.564 310.649 269.534H316.652C328.584 281.63 342.511 291.5 354.901 298.667C379.574 300.233 399.1 320.734 399.101 345.801L399.097 346.411C398.77 372.216 377.749 393.035 351.867 393.035C325.985 393.035 304.964 372.216 304.637 346.411L304.633 345.801C304.633 339.978 305.69 334.397 307.62 329.241C294.796 302.807 279.668 284.991 266.606 273.426C265.853 273.668 265.094 273.899 264.33 274.117C251.276 297.662 240.168 330.945 242.272 370.883C248.753 378.968 252.634 389.234 252.634 400.401C252.634 426.487 231.486 447.634 205.4 447.635C179.314 447.635 158.166 426.488 158.166 400.401C158.166 380.128 170.939 362.847 188.868 356.146C205.193 335.014 219.128 304.872 214.697 270.541C209.841 268.353 205.271 265.645 201.057 262.488C187.884 267.121 170.933 277.565 150.277 297.853C150.336 298.804 150.367 299.765 150.367 300.734L150.363 301.345C150.036 327.15 129.016 347.967 103.134 347.968C77.2514 347.968 56.2301 327.15 55.9033 301.345L55.8994 300.734C55.8994 274.648 77.0476 253.501 103.134 253.501C109.93 253.501 116.395 254.941 122.238 257.529C140.276 252.474 159.856 241.965 174.273 222.468C172.907 217.11 172.14 211.516 172.044 205.761L172.033 204.534C172.033 203.301 172.066 202.076 172.127 200.858C155.323 176.178 125.064 161.978 98.6963 154.883C94.8541 155.892 90.8227 156.435 86.667 156.435C60.5808 156.435 39.4336 135.287 39.4336 109.201C39.4336 83.1149 60.5807 61.9678 86.667 61.9678C112.753 61.968 133.9 83.1151 133.9 109.201C133.9 109.512 133.896 109.82 133.889 110.125C152.845 130.535 177.918 141.807 199.968 147.409C201.786 145.993 203.675 144.664 205.626 143.424C211.66 119.954 211.099 101.702 208.03 87.9873C195.43 79.6774 187.038 65.4902 186.773 49.3213L186.767 48.5342C186.767 22.4481 207.914 1.30085 234 1.30078L234.61 1.30469ZM31.082 171.177C46.7704 171.574 59.3672 184.417 59.3672 200.201C59.3672 215.985 46.7703 228.827 31.082 229.225L30.333 229.234C14.2986 229.234 1.29984 216.236 1.2998 200.201C1.2998 184.167 14.2985 171.167 30.333 171.167L31.082 171.177ZM30.333 175.501C16.6918 175.501 5.63379 186.56 5.63379 200.201L5.6416 200.839C5.97987 214.185 16.905 224.9 30.333 224.9C43.9744 224.9 55.0332 213.842 55.0332 200.201L55.0254 199.563C54.6871 186.217 43.7611 175.501 30.333 175.501Z" fill="black"/>
<path d="M234.599 2.16992C259.93 2.49096 280.366 23.1249 280.366 48.5322L280.358 49.3994C280.029 67.3503 269.496 82.8021 254.323 90.2139C251.146 105.097 253.231 120.253 258.101 134.346C267.75 136.219 276.705 140.032 284.545 145.361C318.023 129.786 339.674 99.3 351.468 73.2676C350.878 70.3135 350.567 67.259 350.567 64.1328C350.567 38.5253 371.326 17.7658 396.933 17.7656C422.541 17.7657 443.299 38.5253 443.299 64.1328C443.299 89.7402 422.541 110.499 396.933 110.499C393.926 110.499 390.986 110.207 388.137 109.659C362.119 119.747 342.829 136.328 328.948 154.266H325.677C339.941 135.33 360.064 117.671 387.543 107.101L387.896 106.965L388.266 107.039C391.067 107.602 393.965 107.899 396.933 107.899L398.063 107.885C421.337 107.295 440.095 88.5365 440.685 65.2627L440.7 64.1328C440.7 40.3389 421.712 20.9793 398.063 20.3799L396.933 20.3652C372.762 20.3654 353.167 39.9612 353.167 64.1328L353.17 64.7119C353.208 67.6038 353.527 70.4269 354.099 73.1562L354.186 73.5703L354.012 73.9561C342.037 100.56 319.769 132.123 284.965 148.036L284.291 148.344L283.682 147.921C275.792 142.436 266.702 138.557 256.885 136.761L256.145 136.626L255.894 135.915C250.67 121.115 248.362 104.968 251.919 89.0352L252.058 88.4141L252.633 88.1426C267.488 81.1417 277.766 66.0368 277.766 48.5322C277.766 24.3607 258.171 4.76562 234 4.76562C209.828 4.76582 190.233 24.3608 190.233 48.5322C190.233 63.8701 198.124 77.3636 210.072 85.1807L210.643 85.5488L211.093 85.833L211.214 86.3506C214.626 100.91 215.286 120.271 208.766 145.127L208.634 145.629L208.193 145.902C205.788 147.391 203.481 149.022 201.286 150.785L200.784 151.188L200.16 151.033C177.216 145.361 150.659 133.62 130.736 111.82L130.376 111.427L130.397 110.894C130.408 110.609 130.417 110.326 130.423 110.044L130.433 109.199C130.433 85.4054 111.446 66.0467 87.7964 65.4473L86.6665 65.4326C62.495 65.4328 42.8999 85.0276 42.8999 109.199L42.9146 110.329C43.5139 133.978 62.8727 152.966 86.6665 152.966L87.4243 152.959C91.2036 152.895 94.8647 152.349 98.3511 151.386L98.6909 151.292L99.0317 151.382C126.043 158.564 157.877 173.258 175.411 199.52L175.654 199.883L175.627 200.319C175.543 201.713 175.5 203.118 175.5 204.532C175.5 210.777 176.33 216.826 177.885 222.575L178.047 223.174L177.684 223.677C162.447 244.76 141.47 255.884 122.408 261.081L121.95 261.206L121.519 261.007C116.105 258.497 110.092 257.058 103.749 256.971L103.133 256.966C78.9617 256.966 59.3658 276.561 59.3657 300.732C59.3657 324.904 78.9617 344.499 103.133 344.499L104.263 344.484C127.913 343.885 146.9 324.526 146.9 300.732C146.9 299.515 146.846 298.308 146.749 297.111L146.7 296.507L147.13 296.081C168.906 274.545 186.898 263.536 201.038 258.828L201.696 258.609L202.244 259.034C206.807 262.569 211.827 265.543 217.199 267.854L217.871 268.143L217.972 268.866C223.097 305.197 208.251 336.916 191.228 358.761L190.997 359.059L190.641 359.186C173.73 365.242 161.632 381.409 161.632 400.399L161.647 401.529C162.246 425.179 181.606 444.166 205.4 444.166L206.53 444.151C229.804 443.561 248.562 424.803 249.152 401.529L249.167 400.399C249.167 389.807 245.405 380.095 239.143 372.524L238.872 372.195L238.847 371.77C236.508 330.311 248.159 295.833 261.742 271.638L262.008 271.163L262.534 271.021C263.936 270.639 265.321 270.213 266.686 269.747L267.314 269.532H267.425L267.958 269.996C281.71 281.954 297.728 300.614 311.151 328.579L311.398 329.093L311.187 329.622C309.196 334.625 308.099 340.082 308.099 345.799C308.099 369.97 327.695 389.566 351.867 389.566L352.997 389.552C376.646 388.952 395.633 369.593 395.633 345.799C395.633 322.406 377.279 303.298 354.186 302.093L353.875 302.077L353.605 301.922C340.143 294.181 324.706 283.201 311.836 269.532H315.438C327.632 282.039 341.963 292.201 354.643 299.518C378.958 300.954 398.233 321.124 398.233 345.799L398.229 346.398C397.908 371.73 377.274 392.166 351.867 392.166C326.459 392.166 305.824 371.73 305.503 346.398L305.5 345.799C305.5 339.952 306.586 334.355 308.563 329.2C295.531 302.221 280.093 284.124 266.807 272.446C265.797 272.779 264.778 273.09 263.749 273.379C250.523 297.114 239.23 330.776 241.421 371.206C247.888 379.176 251.766 389.336 251.766 400.399C251.766 426.007 231.007 446.765 205.4 446.766C179.793 446.766 159.033 426.007 159.033 400.399C159.033 380.413 171.68 363.387 189.402 356.871C205.955 335.519 220.172 304.886 215.493 269.943C210.391 267.685 205.603 264.849 201.212 261.517C187.756 266.147 170.455 276.758 149.384 297.511C149.458 298.574 149.5 299.648 149.5 300.732L149.496 301.332C149.175 326.663 128.541 347.098 103.133 347.099C77.726 347.099 57.0911 326.663 56.77 301.332L56.7661 300.732C56.7661 275.125 77.5259 254.366 103.133 254.366C109.918 254.366 116.364 255.827 122.174 258.447C140.536 253.357 160.556 242.655 175.215 222.646C173.802 217.234 173.007 211.573 172.91 205.744L172.9 204.532C172.9 203.216 172.937 201.908 173.007 200.609C156.015 175.455 125.277 161.103 98.6948 153.984C94.8577 155.013 90.826 155.565 86.6665 155.565C61.059 155.565 40.3003 134.807 40.3003 109.199C40.3003 83.5917 61.059 62.8331 86.6665 62.833C112.274 62.8331 133.033 83.5917 133.033 109.199C133.033 109.62 133.023 110.037 133.011 110.45C152.264 131.314 177.821 142.737 200.168 148.354C202.156 146.787 204.229 145.323 206.378 143.971C212.585 120.022 211.981 101.414 208.797 87.4521C196.265 79.3207 187.901 65.2999 187.639 49.3047L187.633 48.5322C187.633 22.9249 208.392 2.16622 234 2.16602L234.599 2.16992ZM31.0591 172.041C46.2793 172.426 58.4995 184.886 58.4995 200.199C58.4995 215.512 46.2793 227.971 31.0591 228.356L30.3325 228.365C14.7769 228.365 2.16654 215.755 2.1665 200.199C2.1665 184.643 14.7768 172.033 30.3325 172.032L31.0591 172.041ZM30.3325 174.632C16.2128 174.632 4.76611 186.079 4.76611 200.199L4.7749 200.859C5.12508 214.674 16.4335 225.765 30.3325 225.766C44.4526 225.766 55.8999 214.319 55.8999 200.199L55.8911 199.539C55.5409 185.724 44.2319 174.632 30.3325 174.632Z" fill="black"/>
<path d="M234.599 2.16992L234.627 0.00338793L234.613 0.00330114L234.599 2.16992ZM280.366 48.5322L282.532 48.5517L282.532 48.542V48.5322L280.366 48.5322ZM280.358 49.3994L282.524 49.4392L282.524 49.429L282.524 49.4189L280.358 49.3994ZM254.323 90.2139L253.372 88.267L252.424 88.73L252.204 89.7616L254.323 90.2139ZM258.101 134.346L256.053 135.053L256.461 136.235L257.688 136.473L258.101 134.346ZM284.545 145.361L283.327 147.153L284.344 147.845L285.459 147.326L284.545 145.361ZM351.468 73.2676L353.442 74.1617L353.73 73.5266L353.593 72.8429L351.468 73.2676ZM350.567 64.1328H348.4V64.1328L350.567 64.1328ZM396.933 17.7656V15.599V17.7656ZM443.299 64.1328L445.466 64.1328V64.1328H443.299ZM396.933 110.499V112.666V110.499ZM388.137 109.659L388.546 107.531L387.935 107.414L387.354 107.639L388.137 109.659ZM328.948 154.266V156.432H330.011L330.661 155.592L328.948 154.266ZM325.677 154.266L323.947 152.962L321.333 156.432H325.677V154.266ZM387.543 107.101L388.321 109.123L388.322 109.123L387.543 107.101ZM387.896 106.965L388.322 104.84L387.705 104.717L387.117 104.943L387.896 106.965ZM388.266 107.039L388.693 104.915L388.692 104.915L388.266 107.039ZM396.933 107.899V110.066H396.947L396.961 110.066L396.933 107.899ZM398.063 107.885L398.091 110.051L398.104 110.051L398.118 110.051L398.063 107.885ZM440.685 65.2627L442.851 65.3176L442.851 65.3042L442.852 65.2908L440.685 65.2627ZM440.7 64.1328L442.866 64.1609L442.866 64.1469V64.1328H440.7ZM398.063 20.3799L398.118 18.2139L398.104 18.2136L398.091 18.2134L398.063 20.3799ZM396.933 20.3652L396.961 18.1987L396.947 18.1986H396.933V20.3652ZM353.167 64.1328H351V64.1401L351 64.1474L353.167 64.1328ZM353.17 64.7119L351.004 64.7265L351.004 64.7401L353.17 64.7119ZM354.099 73.1562L351.979 73.6007L351.979 73.6013L354.099 73.1562ZM354.186 73.5703L356.161 74.4605L356.452 73.8165L356.306 73.1252L354.186 73.5703ZM354.012 73.9561L352.037 73.0659L352.036 73.0667L354.012 73.9561ZM284.965 148.036L285.864 150.008L285.866 150.007L284.965 148.036ZM284.291 148.344L283.054 150.123L284.067 150.827L285.189 150.315L284.291 148.344ZM283.682 147.921L282.445 149.7L282.446 149.7L283.682 147.921ZM256.885 136.761L257.275 134.629L257.273 134.629L256.885 136.761ZM256.145 136.626L254.102 137.347L254.52 138.532L255.757 138.758L256.145 136.626ZM255.894 135.915L253.851 136.636L253.851 136.636L255.894 135.915ZM251.919 89.0352L254.034 89.5073L254.034 89.5073L251.919 89.0352ZM252.058 88.4141L251.133 86.4547L250.175 86.9072L249.943 87.9419L252.058 88.4141ZM252.633 88.1426L251.71 86.1827L251.708 86.1832L252.633 88.1426ZM277.766 48.5322H279.933V48.5322L277.766 48.5322ZM234 4.76562V2.59896H233.999L234 4.76562ZM190.233 48.5322L188.066 48.5322V48.5322H190.233ZM210.072 85.1807L208.886 86.9938L208.892 86.9978L208.898 87.0019L210.072 85.1807ZM210.643 85.5488L209.469 87.3701L209.478 87.3756L209.487 87.381L210.643 85.5488ZM211.093 85.833L213.203 85.3394L213.001 84.4748L212.25 84.0008L211.093 85.833ZM211.214 86.3506L209.105 86.8442L209.105 86.845L211.214 86.3506ZM208.766 145.127L210.862 145.677L210.862 145.677L208.766 145.127ZM208.634 145.629L209.775 147.471L210.51 147.016L210.73 146.179L208.634 145.629ZM208.193 145.902L209.333 147.745L209.334 147.744L208.193 145.902ZM201.286 150.785L202.641 152.476L202.642 152.474L201.286 150.785ZM200.784 151.188L200.264 153.291L201.303 153.548L202.139 152.878L200.784 151.188ZM200.16 151.033L200.68 148.93L200.68 148.93L200.16 151.033ZM130.736 111.82L129.136 113.281L129.136 113.282L130.736 111.82ZM130.376 111.427L128.211 111.343L128.177 112.232L128.776 112.888L130.376 111.427ZM130.397 110.894L132.562 110.977L132.562 110.976L130.397 110.894ZM130.423 110.044L132.589 110.093L132.59 110.081L132.59 110.069L130.423 110.044ZM130.433 109.199L132.6 109.224L132.6 109.212V109.199H130.433ZM87.7964 65.4473L87.8513 63.2813L87.8379 63.281L87.8245 63.2808L87.7964 65.4473ZM86.6665 65.4326L86.6946 63.2661L86.6805 63.2659H86.6665L86.6665 65.4326ZM42.8999 109.199H40.7332V109.213L40.7334 109.227L42.8999 109.199ZM42.9146 110.329L40.7481 110.357L40.7482 110.371L40.7486 110.384L42.9146 110.329ZM86.6665 152.966L86.6665 155.132H86.6763L86.6861 155.132L86.6665 152.966ZM87.4243 152.959L87.4439 155.126L87.4526 155.125L87.4613 155.125L87.4243 152.959ZM98.3511 151.386L97.7749 149.297L97.774 149.297L98.3511 151.386ZM98.6909 151.292L99.2432 149.197L98.6781 149.048L98.1147 149.203L98.6909 151.292ZM99.0317 151.382L99.5885 149.288L99.584 149.287L99.0317 151.382ZM175.411 199.52L173.609 200.723L173.61 200.725L175.411 199.52ZM175.654 199.883L177.817 200.013L177.861 199.284L177.454 198.678L175.654 199.883ZM175.627 200.319L173.465 200.189L173.465 200.189L175.627 200.319ZM175.5 204.532L173.333 204.532V204.532H175.5ZM177.885 222.575L175.794 223.141L175.794 223.142L177.885 222.575ZM178.047 223.174L179.804 224.443L180.409 223.605L180.139 222.607L178.047 223.174ZM177.684 223.677L179.44 224.946L179.44 224.945L177.684 223.677ZM122.408 261.081L121.838 258.991L121.837 258.991L122.408 261.081ZM121.95 261.206L121.04 263.173L121.758 263.504L122.52 263.296L121.95 261.206ZM121.519 261.007L120.608 262.973L120.609 262.973L121.519 261.007ZM103.749 256.971L103.778 254.804L103.766 254.804L103.749 256.971ZM103.133 256.966L103.15 254.799L103.142 254.799H103.133L103.133 256.966ZM59.3657 300.732H57.1991H59.3657ZM103.133 344.499L103.133 346.666H103.147L103.161 346.665L103.133 344.499ZM104.263 344.484L104.291 346.651L104.305 346.651L104.318 346.65L104.263 344.484ZM146.9 300.732H149.067H146.9ZM146.749 297.111L144.589 297.286L144.589 297.288L146.749 297.111ZM146.7 296.507L145.176 294.966L144.459 295.676L144.54 296.681L146.7 296.507ZM147.13 296.081L148.654 297.622L148.654 297.622L147.13 296.081ZM201.038 258.828L200.354 256.772L200.353 256.772L201.038 258.828ZM201.696 258.609L203.023 256.897L202.11 256.189L201.012 256.553L201.696 258.609ZM202.244 259.034L200.916 260.746L200.917 260.747L202.244 259.034ZM217.199 267.854L218.055 265.863L218.055 265.863L217.199 267.854ZM217.871 268.143L220.016 267.841L219.847 266.634L218.727 266.152L217.871 268.143ZM217.972 268.866L215.827 269.167L215.827 269.169L217.972 268.866ZM191.228 358.761L189.519 357.429L189.517 357.431L191.228 358.761ZM190.997 359.059L191.725 361.099L192.32 360.887L192.707 360.388L190.997 359.059ZM190.641 359.186L189.912 357.145L189.911 357.146L190.641 359.186ZM161.632 400.399H159.466V400.413L159.466 400.427L161.632 400.399ZM161.647 401.529L159.48 401.557L159.481 401.571L159.481 401.584L161.647 401.529ZM205.4 444.166L205.4 446.333H205.414L205.428 446.332L205.4 444.166ZM206.53 444.151L206.558 446.318L206.571 446.318L206.585 446.317L206.53 444.151ZM249.152 401.529L251.318 401.584L251.318 401.571L251.318 401.557L249.152 401.529ZM249.167 400.399L251.333 400.427L251.333 400.413V400.399H249.167ZM239.143 372.524L237.472 373.903L237.473 373.905L239.143 372.524ZM238.872 372.195L236.708 372.319L236.749 373.027L237.2 373.574L238.872 372.195ZM238.847 371.77L236.684 371.892L236.684 371.894L238.847 371.77ZM261.742 271.638L259.853 270.577L259.852 270.577L261.742 271.638ZM262.008 271.163L261.441 269.072L260.564 269.31L260.119 270.102L262.008 271.163ZM262.534 271.021L263.101 273.112L263.103 273.111L262.534 271.021ZM266.686 269.747L267.387 271.797L267.387 271.797L266.686 269.747ZM267.314 269.532V267.366H266.954L266.613 267.482L267.314 269.532ZM267.425 269.532L268.847 267.898L268.236 267.366H267.425V269.532ZM267.958 269.996L266.536 271.631L266.537 271.631L267.958 269.996ZM311.151 328.579L309.198 329.517L309.198 329.518L311.151 328.579ZM311.398 329.093L313.411 329.895L313.763 329.011L313.35 328.154L311.398 329.093ZM311.187 329.622L309.174 328.82L309.174 328.821L311.187 329.622ZM308.099 345.799L305.932 345.799V345.799H308.099ZM351.867 389.566V391.733H351.881L351.895 391.733L351.867 389.566ZM352.997 389.552L353.025 391.718L353.038 391.718L353.051 391.718L352.997 389.552ZM395.633 345.799H397.8V345.799L395.633 345.799ZM354.186 302.093L354.299 299.929L354.295 299.929L354.186 302.093ZM353.875 302.077L352.797 303.956L353.248 304.215L353.767 304.241L353.875 302.077ZM353.605 301.922L352.525 303.8L352.526 303.801L353.605 301.922ZM311.836 269.532V267.366H306.82L310.259 271.018L311.836 269.532ZM315.438 269.532L316.989 268.02L316.352 267.366H315.438V269.532ZM354.643 299.518L353.56 301.394L354.004 301.65L354.515 301.68L354.643 299.518ZM398.233 345.799L400.4 345.813V345.799H398.233ZM398.229 346.398L400.396 346.426L400.396 346.413L398.229 346.398ZM351.867 392.166V394.333H351.867L351.867 392.166ZM305.503 346.398L303.337 346.413L303.337 346.426L305.503 346.398ZM305.5 345.799H303.333L303.333 345.813L305.5 345.799ZM308.563 329.2L310.586 329.976L310.921 329.101L310.514 328.258L308.563 329.2ZM266.807 272.446L268.238 270.819L267.306 270L266.129 270.389L266.807 272.446ZM263.749 273.379L263.163 271.293L262.295 271.536L261.856 272.324L263.749 273.379ZM241.421 371.206L239.258 371.323L239.296 372.025L239.739 372.571L241.421 371.206ZM251.766 400.399H253.933H251.766ZM205.4 446.766L205.4 448.932H205.4L205.4 446.766ZM159.033 400.399H156.866H159.033ZM189.402 356.871L190.149 358.905L190.733 358.69L191.114 358.199L189.402 356.871ZM215.493 269.943L217.64 269.656L217.479 268.453L216.37 267.962L215.493 269.943ZM201.212 261.517L202.522 259.791L201.601 259.092L200.507 259.468L201.212 261.517ZM149.384 297.511L147.864 295.967L147.154 296.666L147.223 297.661L149.384 297.511ZM149.5 300.732L151.666 300.747V300.732H149.5ZM149.496 301.332L151.662 301.359L151.662 301.346L149.496 301.332ZM103.133 347.099L103.133 349.265H103.133L103.133 347.099ZM56.77 301.332L54.6034 301.346L54.6035 301.359L56.77 301.332ZM56.7661 300.732H54.5994L54.5995 300.747L56.7661 300.732ZM103.133 254.366L103.133 252.2H103.133L103.133 254.366ZM122.174 258.447L121.284 260.422L121.998 260.745L122.753 260.535L122.174 258.447ZM175.215 222.646L176.963 223.926L177.572 223.095L177.312 222.098L175.215 222.646ZM172.91 205.744L170.743 205.762L170.743 205.771L170.743 205.78L172.91 205.744ZM172.9 204.532L170.733 204.532V204.541L170.733 204.55L172.9 204.532ZM173.007 200.609L175.171 200.727L175.21 200L174.803 199.397L173.007 200.609ZM98.6948 153.984L99.2553 151.891L98.6946 151.741L98.134 151.892L98.6948 153.984ZM86.6665 155.565L86.6665 157.732H86.6665L86.6665 155.565ZM40.3003 109.199H38.1336H40.3003ZM86.6665 62.833L86.6665 60.6663H86.6665L86.6665 62.833ZM133.033 109.199H135.199H133.033ZM133.011 110.45L130.845 110.387L130.82 111.27L131.419 111.92L133.011 110.45ZM200.168 148.354L199.64 150.455L200.673 150.714L201.51 150.055L200.168 148.354ZM206.378 143.971L207.532 145.805L208.26 145.347L208.476 144.514L206.378 143.971ZM208.797 87.4521L210.91 86.9705L210.714 86.1132L209.977 85.6346L208.797 87.4521ZM187.639 49.3047L185.473 49.3211L185.473 49.3306L185.473 49.3401L187.639 49.3047ZM187.633 48.5322L185.467 48.5322V48.5404L185.467 48.5487L187.633 48.5322ZM234 2.16602L234.014 -0.000651121H233.999L234 2.16602ZM31.0591 172.041L31.1139 169.875L31.0996 169.875L31.0853 169.875L31.0591 172.041ZM58.4995 200.199H60.6662H58.4995ZM31.0591 228.356L31.0853 230.523L31.0996 230.523L31.1139 230.522L31.0591 228.356ZM30.3325 228.365L30.3325 230.532H30.3456L30.3587 230.532L30.3325 228.365ZM2.1665 200.199H-0.00016284H2.1665ZM30.3325 172.032L30.3587 169.866L30.3456 169.866H30.3325L30.3325 172.032ZM30.3325 174.632V172.465H30.3325L30.3325 174.632ZM4.76611 200.199H2.59945V200.214L2.59964 200.228L4.76611 200.199ZM4.7749 200.859L2.60843 200.888L2.6086 200.901L2.60893 200.914L4.7749 200.859ZM30.3325 225.766L30.3325 227.932H30.3325V225.766ZM55.8999 200.199H58.0666V200.185L58.0664 200.17L55.8999 200.199ZM55.8911 199.539L58.0576 199.51L58.0574 199.497L58.0571 199.484L55.8911 199.539ZM234.599 2.16992L234.572 4.33641C258.719 4.64244 278.199 24.3123 278.199 48.5322L280.366 48.5322L282.532 48.5322C282.532 21.9375 261.142 0.339476 234.627 0.00342917L234.599 2.16992ZM280.366 48.5322L278.199 48.5127L278.191 49.3799L280.358 49.3994L282.524 49.4189L282.532 48.5517L280.366 48.5322ZM280.358 49.3994L278.192 49.3597C277.878 66.4671 267.842 81.199 253.372 88.267L254.323 90.2139L255.274 92.1607C271.151 84.4052 282.179 68.2335 282.524 49.4392L280.358 49.3994ZM254.323 90.2139L252.204 89.7616C248.923 105.133 251.094 120.701 256.053 135.053L258.101 134.346L260.149 133.638C255.369 119.806 253.369 105.061 256.442 90.6662L254.323 90.2139ZM258.101 134.346L257.688 136.473C267.042 138.288 275.724 141.985 283.327 147.153L284.545 145.361L285.763 143.569C277.686 138.079 268.458 134.149 258.514 132.219L258.101 134.346ZM284.545 145.361L285.459 147.326C319.579 131.452 341.528 100.458 353.442 74.1617L351.468 73.2676L349.495 72.3734C337.82 98.1424 316.466 128.121 283.631 143.397L284.545 145.361ZM351.468 73.2676L353.593 72.8429C353.03 70.0273 352.734 67.115 352.734 64.1328L350.567 64.1328L348.4 64.1328C348.4 67.403 348.725 70.5997 349.344 73.6923L351.468 73.2676ZM350.567 64.1328H352.734C352.734 39.7219 372.522 19.9324 396.933 19.9323V17.7656V15.599C370.129 15.5991 348.4 37.3288 348.4 64.1328H350.567ZM396.933 17.7656V19.9323C421.344 19.9324 441.133 39.7219 441.133 64.1328H443.299H445.466C445.466 37.3287 423.737 15.599 396.933 15.599V17.7656ZM443.299 64.1328L441.133 64.1328C441.132 88.5436 421.344 108.332 396.933 108.332V110.499V112.666C423.737 112.666 445.466 90.9368 445.466 64.1328L443.299 64.1328ZM396.933 110.499V108.332C394.067 108.332 391.263 108.054 388.546 107.531L388.137 109.659L387.728 111.787C390.708 112.359 393.785 112.666 396.933 112.666V110.499ZM388.137 109.659L387.354 107.639C360.911 117.891 341.316 134.742 327.234 152.94L328.948 154.266L330.661 155.592C344.342 137.913 363.326 121.603 388.92 111.679L388.137 109.659ZM328.948 154.266V152.099H325.677V154.266V156.432H328.948V154.266ZM325.677 154.266L327.408 155.569C341.47 136.9 361.281 119.524 388.321 109.123L387.543 107.101L386.766 105.078C358.846 115.818 338.411 133.759 323.947 152.962L325.677 154.266ZM387.543 107.101L388.322 109.123L388.675 108.987L387.896 106.965L387.117 104.943L386.765 105.079L387.543 107.101ZM387.896 106.965L387.47 109.089L387.84 109.163L388.266 107.039L388.692 104.915L388.322 104.84L387.896 106.965ZM388.266 107.039L387.839 109.163C390.779 109.754 393.82 110.066 396.933 110.066V107.899V105.733C394.111 105.733 391.355 105.45 388.693 104.915L388.266 107.039ZM396.933 107.899L396.961 110.066L398.091 110.051L398.063 107.885L398.035 105.718L396.905 105.733L396.933 107.899ZM398.063 107.885L398.118 110.051C422.545 109.432 442.232 89.745 442.851 65.3176L440.685 65.2627L438.519 65.2078C437.958 87.328 420.128 105.158 398.008 105.719L398.063 107.885ZM440.685 65.2627L442.852 65.2908L442.866 64.1609L440.7 64.1328L438.533 64.1047L438.519 65.2346L440.685 65.2627ZM440.7 64.1328H442.866C442.866 39.1607 422.939 18.843 398.118 18.2139L398.063 20.3799L398.008 22.5459C420.486 23.1155 438.533 41.5171 438.533 64.1328H440.7ZM398.063 20.3799L398.091 18.2134L396.961 18.1987L396.933 20.3652L396.905 22.5317L398.035 22.5464L398.063 20.3799ZM396.933 20.3652V18.1986C371.565 18.1987 351 38.7646 351 64.1328H353.167H355.333C355.333 41.1578 373.958 22.532 396.933 22.5319V20.3652ZM353.167 64.1328L351 64.1474L351.004 64.7265L353.17 64.7119L355.337 64.6973L355.333 64.1182L353.167 64.1328ZM353.17 64.7119L351.004 64.7401C351.043 67.7733 351.378 70.7358 351.979 73.6007L354.099 73.1562L356.22 72.7118C355.676 70.1181 355.373 67.4342 355.337 64.6837L353.17 64.7119ZM354.099 73.1562L351.979 73.6013L352.066 74.0154L354.186 73.5703L356.306 73.1252L356.22 72.7112L354.099 73.1562ZM354.186 73.5703L352.211 72.6802L352.037 73.0659L354.012 73.9561L355.988 74.8462L356.161 74.4605L354.186 73.5703ZM354.012 73.9561L352.036 73.0667C340.18 99.4059 318.213 130.452 284.064 146.066L284.965 148.036L285.866 150.007C321.325 133.794 343.893 101.714 355.988 74.8454L354.012 73.9561ZM284.965 148.036L284.067 146.065L283.392 146.372L284.291 148.344L285.189 150.315L285.864 150.008L284.965 148.036ZM284.291 148.344L285.527 146.565L284.919 146.142L283.682 147.921L282.446 149.7L283.054 150.123L284.291 148.344ZM283.682 147.921L284.919 146.142C276.781 140.484 267.403 136.483 257.275 134.629L256.885 136.761L256.495 138.892C266 140.632 274.803 144.387 282.445 149.7L283.682 147.921ZM256.885 136.761L257.273 134.629L256.533 134.494L256.145 136.626L255.757 138.758L256.497 138.892L256.885 136.761ZM256.145 136.626L258.188 135.905L257.937 135.194L255.894 135.915L253.851 136.636L254.102 137.347L256.145 136.626ZM255.894 135.915L257.937 135.194C252.806 120.658 250.589 104.935 254.034 89.5073L251.919 89.0352L249.805 88.563C246.135 105 248.534 121.573 253.851 136.636L255.894 135.915ZM251.919 89.0352L254.034 89.5073L254.173 88.8862L252.058 88.4141L249.943 87.9419L249.805 88.563L251.919 89.0352ZM252.058 88.4141L252.983 90.3734L253.558 90.102L252.633 88.1426L251.708 86.1832L251.133 86.4547L252.058 88.4141ZM252.633 88.1426L253.557 90.1025C269.142 82.7575 279.933 66.9069 279.933 48.5322H277.766H275.599C275.599 65.1667 265.834 79.5258 251.71 86.1827L252.633 88.1426ZM277.766 48.5322L279.933 48.5322C279.933 23.1641 259.368 2.59896 234 2.59896V4.76562V6.93229C256.974 6.93229 275.599 25.5573 275.599 48.5322L277.766 48.5322ZM234 4.76562L233.999 2.59896C208.632 2.59917 188.066 23.1642 188.066 48.5322L190.233 48.5322L192.4 48.5322C192.4 25.5574 211.025 6.93248 234 6.93229L234 4.76562ZM190.233 48.5322H188.066C188.066 64.6319 196.352 78.7936 208.886 86.9938L210.072 85.1807L211.258 83.3676C199.896 75.9337 192.4 63.1082 192.4 48.5322H190.233ZM210.072 85.1807L208.898 87.0019L209.469 87.3701L210.643 85.5488L211.817 83.7276L211.245 83.3594L210.072 85.1807ZM210.643 85.5488L209.487 87.381L209.937 87.6652L211.093 85.833L212.25 84.0008L211.8 83.7167L210.643 85.5488ZM211.093 85.833L208.984 86.3266L209.105 86.8442L211.214 86.3506L213.324 85.857L213.203 85.3394L211.093 85.833ZM211.214 86.3506L209.105 86.845C212.43 101.032 213.108 120.035 206.67 144.577L208.766 145.127L210.862 145.677C217.464 120.508 216.823 100.787 213.324 85.8562L211.214 86.3506ZM208.766 145.127L206.671 144.577L206.539 145.079L208.634 145.629L210.73 146.179L210.862 145.677L208.766 145.127ZM208.634 145.629L207.493 143.787L207.052 144.06L208.193 145.902L209.334 147.744L209.775 147.471L208.634 145.629ZM208.193 145.902L207.053 144.06C204.573 145.595 202.193 147.277 199.929 149.096L201.286 150.785L202.642 152.474C204.769 150.767 207.004 149.186 209.333 147.745L208.193 145.902ZM201.286 150.785L199.931 149.095L199.429 149.497L200.784 151.188L202.139 152.878L202.641 152.476L201.286 150.785ZM200.784 151.188L201.304 149.084L200.68 148.93L200.16 151.033L199.64 153.137L200.264 153.291L200.784 151.188ZM200.16 151.033L200.68 148.93C177.998 143.323 151.879 131.743 132.335 110.359L130.736 111.82L129.136 113.282C149.439 135.496 176.433 147.4 199.64 153.137L200.16 151.033ZM130.736 111.82L132.336 110.359L131.976 109.966L130.376 111.427L128.776 112.888L129.136 113.281L130.736 111.82ZM130.376 111.427L132.542 111.51L132.562 110.977L130.397 110.894L128.232 110.81L128.211 111.343L130.376 111.427ZM130.397 110.894L132.562 110.976C132.573 110.684 132.583 110.389 132.589 110.093L130.423 110.044L128.257 109.995C128.251 110.263 128.242 110.535 128.232 110.811L130.397 110.894ZM130.423 110.044L132.59 110.069L132.6 109.224L130.433 109.199L128.267 109.174L128.257 110.019L130.423 110.044ZM130.433 109.199H132.6C132.6 84.2271 112.672 63.9104 87.8513 63.2813L87.7964 65.4473L87.7415 67.6132C110.219 68.1829 128.266 86.5837 128.266 109.199H130.433ZM87.7964 65.4473L87.8245 63.2808L86.6946 63.2661L86.6665 65.4326L86.6384 67.5991L87.7683 67.6137L87.7964 65.4473ZM86.6665 65.4326L86.6665 63.2659C61.2983 63.2661 40.7332 83.831 40.7332 109.199H42.8999H45.0666C45.0666 86.2243 63.6916 67.5994 86.6665 67.5993L86.6665 65.4326ZM42.8999 109.199L40.7334 109.227L40.7481 110.357L42.9146 110.329L45.081 110.301L45.0664 109.171L42.8999 109.199ZM42.9146 110.329L40.7486 110.384C41.3776 135.205 61.6945 155.132 86.6665 155.132L86.6665 152.966L86.6665 150.799C64.051 150.799 45.6501 132.752 45.0805 110.274L42.9146 110.329ZM86.6665 152.966L86.6861 155.132L87.4439 155.126L87.4243 152.959L87.4048 150.792L86.647 150.799L86.6665 152.966ZM87.4243 152.959L87.4613 155.125C91.4258 155.058 95.2682 154.486 98.9282 153.474L98.3511 151.386L97.774 149.297C94.4611 150.213 90.9815 150.731 87.3874 150.793L87.4243 152.959ZM98.3511 151.386L98.9273 153.474L99.2671 153.381L98.6909 151.292L98.1147 149.203L97.7749 149.297L98.3511 151.386ZM98.6909 151.292L98.1386 153.387L98.4794 153.477L99.0317 151.382L99.584 149.287L99.2432 149.197L98.6909 151.292ZM99.0317 151.382L98.475 153.476C125.295 160.607 156.51 175.113 173.609 200.723L175.411 199.52L177.213 198.316C159.244 171.404 126.791 156.521 99.5885 149.288L99.0317 151.382ZM175.411 199.52L173.61 200.725L173.853 201.088L175.654 199.883L177.454 198.678L177.211 198.314L175.411 199.52ZM175.654 199.883L173.491 199.752L173.465 200.189L175.627 200.319L177.79 200.45L177.817 200.013L175.654 199.883ZM175.627 200.319L173.465 200.189C173.378 201.625 173.333 203.073 173.333 204.532L175.5 204.532L177.666 204.532C177.666 203.163 177.709 201.802 177.79 200.45L175.627 200.319ZM175.5 204.532H173.333C173.333 210.97 174.189 217.209 175.794 223.141L177.885 222.575L179.977 222.009C178.471 216.443 177.666 210.584 177.666 204.532H175.5ZM177.885 222.575L175.794 223.142L175.956 223.74L178.047 223.174L180.139 222.607L179.977 222.009L177.885 222.575ZM178.047 223.174L176.291 221.905L175.928 222.408L177.684 223.677L179.44 224.945L179.804 224.443L178.047 223.174ZM177.684 223.677L175.928 222.408C161.047 242.998 140.544 253.891 121.838 258.991L122.408 261.081L122.978 263.171C142.397 257.877 163.847 246.521 179.44 224.946L177.684 223.677ZM122.408 261.081L121.837 258.991L121.379 259.116L121.95 261.206L122.52 263.296L122.978 263.171L122.408 261.081ZM121.95 261.206L122.859 259.24L122.429 259.04L121.519 261.007L120.609 262.973L121.04 263.173L121.95 261.206ZM121.519 261.007L122.43 259.041C116.746 256.406 110.433 254.896 103.778 254.804L103.749 256.971L103.719 259.137C109.75 259.22 115.464 260.588 120.608 262.973L121.519 261.007ZM103.749 256.971L103.766 254.804L103.15 254.799L103.133 256.966L103.116 259.132L103.731 259.137L103.749 256.971ZM103.133 256.966L103.133 254.799C77.7652 254.799 57.1991 275.364 57.1991 300.732H59.3657H61.5324C61.5324 277.758 80.1583 259.133 103.133 259.132L103.133 256.966ZM59.3657 300.732H57.1991C57.1991 326.101 77.7652 346.666 103.133 346.666L103.133 344.499L103.133 342.332C80.1583 342.332 61.5324 323.707 61.5324 300.732H59.3657ZM103.133 344.499L103.161 346.665L104.291 346.651L104.263 344.484L104.235 342.318L103.105 342.333L103.133 344.499ZM104.263 344.484L104.318 346.65C129.139 346.021 149.067 325.704 149.067 300.732H146.9H144.733C144.733 323.348 126.686 341.749 104.208 342.318L104.263 344.484ZM146.9 300.732H149.067C149.067 299.452 149.01 298.185 148.908 296.935L146.749 297.111L144.589 297.288C144.683 298.43 144.733 299.578 144.733 300.732H146.9ZM146.749 297.111L148.908 296.937L148.859 296.332L146.7 296.507L144.54 296.681L144.589 297.286L146.749 297.111ZM146.7 296.507L148.223 298.048L148.654 297.622L147.13 296.081L145.607 294.54L145.176 294.966L146.7 296.507ZM147.13 296.081L148.654 297.622C170.286 276.228 188.002 265.452 201.722 260.884L201.038 258.828L200.353 256.772C185.794 261.62 167.526 272.863 145.607 294.541L147.13 296.081ZM201.038 258.828L201.721 260.884L202.379 260.665L201.696 258.609L201.012 256.553L200.354 256.772L201.038 258.828ZM201.696 258.609L200.368 260.322L200.916 260.746L202.244 259.034L203.571 257.322L203.023 256.897L201.696 258.609ZM202.244 259.034L200.917 260.747C205.624 264.393 210.801 267.46 216.343 269.844L217.199 267.854L218.055 265.863C212.853 263.626 207.991 260.746 203.57 257.321L202.244 259.034ZM217.199 267.854L216.342 269.844L217.014 270.133L217.871 268.143L218.727 266.152L218.055 265.863L217.199 267.854ZM217.871 268.143L215.725 268.444L215.827 269.167L217.972 268.866L220.118 268.565L220.016 267.841L217.871 268.143ZM217.972 268.866L215.827 269.169C220.842 304.722 206.324 335.864 189.519 357.429L191.228 358.761L192.937 360.093C210.179 337.968 225.352 305.671 220.118 268.564L217.972 268.866ZM191.228 358.761L189.517 357.431L189.286 357.729L190.997 359.059L192.707 360.388L192.939 360.09L191.228 358.761ZM190.997 359.059L190.268 357.018L189.912 357.145L190.641 359.186L191.37 361.226L191.725 361.099L190.997 359.059ZM190.641 359.186L189.911 357.146C172.165 363.501 159.466 380.465 159.466 400.399H161.632H163.799C163.799 382.353 175.294 366.984 191.372 361.225L190.641 359.186ZM161.632 400.399L159.466 400.427L159.48 401.557L161.647 401.529L163.813 401.501L163.799 400.371L161.632 400.399ZM161.647 401.529L159.481 401.584C160.11 426.405 180.428 446.333 205.4 446.333L205.4 444.166L205.4 441.999C182.784 441.999 164.383 423.952 163.813 401.474L161.647 401.529ZM205.4 444.166L205.428 446.332L206.558 446.318L206.53 444.151L206.502 441.985L205.372 442L205.4 444.166ZM206.53 444.151L206.585 446.317C231.012 445.698 250.699 426.012 251.318 401.584L249.152 401.529L246.986 401.474C246.425 423.595 228.595 441.425 206.475 441.985L206.53 444.151ZM249.152 401.529L251.318 401.557L251.333 400.427L249.167 400.399L247 400.371L246.985 401.501L249.152 401.529ZM249.167 400.399H251.333C251.333 389.284 247.384 379.089 240.813 371.144L239.143 372.524L237.473 373.905C243.426 381.102 247 390.329 247 400.399H249.167ZM239.143 372.524L240.814 371.146L240.543 370.817L238.872 372.195L237.2 373.574L237.472 373.903L239.143 372.524ZM238.872 372.195L241.035 372.071L241.01 371.646L238.847 371.77L236.684 371.894L236.708 372.319L238.872 372.195ZM238.847 371.77L241.01 371.647C238.698 330.669 250.214 296.598 263.631 272.698L261.742 271.638L259.852 270.577C246.104 295.068 234.318 329.953 236.684 371.892L238.847 371.77ZM261.742 271.638L263.631 272.699L263.897 272.224L262.008 271.163L260.119 270.102L259.853 270.577L261.742 271.638ZM262.008 271.163L262.576 273.254L263.101 273.112L262.534 271.021L261.966 268.929L261.441 269.072L262.008 271.163ZM262.534 271.021L263.103 273.111C264.55 272.717 265.979 272.278 267.387 271.797L266.686 269.747L265.986 267.697C264.663 268.149 263.322 268.561 261.965 268.93L262.534 271.021ZM266.686 269.747L267.387 271.797L268.015 271.582L267.314 269.532L266.613 267.482L265.985 267.697L266.686 269.747ZM267.314 269.532V271.699H267.425V269.532V267.366H267.314V269.532ZM267.425 269.532L266.003 271.167L266.536 271.631L267.958 269.996L269.381 268.361L268.847 267.898L267.425 269.532ZM267.958 269.996L266.537 271.631C280.072 283.4 295.906 301.825 309.198 329.517L311.151 328.579L313.104 327.642C299.55 299.403 283.349 280.507 269.38 268.361L267.958 269.996ZM311.151 328.579L309.198 329.518L309.445 330.032L311.398 329.093L313.35 328.154L313.103 327.64L311.151 328.579ZM311.398 329.093L309.385 328.291L309.174 328.82L311.187 329.622L313.2 330.424L313.411 329.895L311.398 329.093ZM311.187 329.622L309.174 328.821C307.083 334.074 305.932 339.803 305.932 345.799L308.099 345.799L310.266 345.799C310.266 340.362 311.309 335.176 313.2 330.423L311.187 329.622ZM308.099 345.799H305.932C305.932 371.167 326.499 391.733 351.867 391.733V389.566V387.4C328.892 387.4 310.266 368.774 310.266 345.799H308.099ZM351.867 389.566L351.895 391.733L353.025 391.718L352.997 389.552L352.969 387.385L351.839 387.4L351.867 389.566ZM352.997 389.552L353.051 391.718C377.873 391.089 397.8 370.771 397.8 345.799H395.633H393.467C393.467 368.414 375.419 386.816 352.942 387.386L352.997 389.552ZM395.633 345.799L397.8 345.799C397.8 321.247 378.537 301.194 354.299 299.929L354.186 302.093L354.073 304.257C376.021 305.402 393.466 323.564 393.467 345.799L395.633 345.799ZM354.186 302.093L354.295 299.929L353.984 299.913L353.875 302.077L353.767 304.241L354.077 304.257L354.186 302.093ZM353.875 302.077L354.954 300.198L354.684 300.043L353.605 301.922L352.526 303.801L352.797 303.956L353.875 302.077ZM353.605 301.922L354.685 300.044C341.353 292.378 326.101 281.521 313.414 268.047L311.836 269.532L310.259 271.018C323.312 284.88 338.933 295.985 352.525 303.8L353.605 301.922ZM311.836 269.532V271.699H315.438V269.532V267.366H311.836V269.532ZM315.438 269.532L313.887 271.045C326.252 283.728 340.755 294.005 353.56 301.394L354.643 299.518L355.726 297.641C343.172 290.397 329.011 280.351 316.989 268.02L315.438 269.532ZM354.643 299.518L354.515 301.68C377.693 303.05 396.066 322.278 396.066 345.799H398.233H400.4C400.399 319.97 380.224 298.859 354.771 297.355L354.643 299.518ZM398.233 345.799L396.066 345.785L396.062 346.384L398.229 346.398L400.396 346.413L400.4 345.813L398.233 345.799ZM398.229 346.398L396.062 346.371C395.756 370.518 376.086 389.999 351.867 389.999L351.867 392.166L351.867 394.333C378.461 394.332 400.059 372.941 400.396 346.426L398.229 346.398ZM351.867 392.166V389.999C327.647 389.999 307.976 370.518 307.67 346.371L305.503 346.398L303.337 346.426C303.673 372.941 325.272 394.333 351.867 394.333V392.166ZM305.503 346.398L307.67 346.384L307.666 345.785L305.5 345.799L303.333 345.813L303.337 346.413L305.503 346.398ZM305.5 345.799H307.666C307.666 340.222 308.702 334.888 310.586 329.976L308.563 329.2L306.54 328.424C304.469 333.823 303.333 339.681 303.333 345.799H305.5ZM308.563 329.2L310.514 328.258C297.352 301.011 281.735 282.683 268.238 270.819L266.807 272.446L265.377 274.074C278.451 285.566 293.709 303.431 306.612 330.143L308.563 329.2ZM266.807 272.446L266.129 270.389C265.15 270.711 264.161 271.013 263.163 271.293L263.749 273.379L264.334 275.465C265.394 275.168 266.445 274.847 267.486 274.504L266.807 272.446ZM263.749 273.379L261.856 272.324C248.466 296.353 237.041 330.418 239.258 371.323L241.421 371.206L243.585 371.089C241.42 331.134 252.579 297.875 265.641 274.434L263.749 273.379ZM241.421 371.206L239.739 372.571C245.904 380.17 249.599 389.852 249.599 400.399H251.766H253.933C253.933 388.821 249.873 378.183 243.104 369.841L241.421 371.206ZM251.766 400.399H249.599C249.599 424.81 229.811 444.599 205.4 444.599L205.4 446.766L205.4 448.932C232.204 448.932 253.933 427.203 253.933 400.399H251.766ZM205.4 446.766L205.4 444.599C180.989 444.599 161.2 424.81 161.199 400.399H159.033H156.866C156.866 427.204 178.596 448.932 205.4 448.932L205.4 446.766ZM159.033 400.399H161.199C161.199 381.35 173.252 365.117 190.149 358.905L189.402 356.871L188.654 354.837C170.108 361.656 156.866 379.475 156.866 400.399H159.033ZM189.402 356.871L191.114 358.199C207.883 336.568 222.422 305.365 217.64 269.656L215.493 269.943L213.345 270.231C217.922 304.407 204.026 334.471 187.689 355.544L189.402 356.871ZM215.493 269.943L216.37 267.962C211.423 265.773 206.78 263.023 202.522 259.791L201.212 261.517L199.902 263.242C204.426 266.676 209.359 269.598 214.616 271.925L215.493 269.943ZM201.212 261.517L200.507 259.468C186.647 264.237 169.077 275.074 147.864 295.967L149.384 297.511L150.905 299.054C171.833 278.442 188.866 268.056 201.917 263.565L201.212 261.517ZM149.384 297.511L147.223 297.661C147.293 298.679 147.333 299.703 147.333 300.732H149.5H151.666C151.666 299.593 151.623 298.468 151.546 297.361L149.384 297.511ZM149.5 300.732L147.333 300.718L147.329 301.318L149.496 301.332L151.662 301.346L151.666 300.747L149.5 300.732ZM149.496 301.332L147.329 301.305C147.023 325.451 127.353 344.932 103.133 344.932L103.133 347.099L103.133 349.265C129.728 349.265 151.326 327.875 151.662 301.359L149.496 301.332ZM103.133 347.099L103.133 344.932C78.9134 344.932 59.2425 325.451 58.9365 301.305L56.77 301.332L54.6035 301.359C54.9396 327.875 76.5387 349.265 103.133 349.265L103.133 347.099ZM56.77 301.332L58.9366 301.318L58.9327 300.718L56.7661 300.732L54.5995 300.747L54.6034 301.346L56.77 301.332ZM56.7661 300.732H58.9328C58.9328 276.322 78.7224 256.533 103.133 256.533L103.133 254.366L103.133 252.2C76.3293 252.2 54.5995 273.928 54.5994 300.732H56.7661ZM103.133 254.366L103.133 256.533C109.604 256.533 115.747 257.925 121.284 260.422L122.174 258.447L123.065 256.472C116.981 253.728 110.232 252.2 103.133 252.2L103.133 254.366ZM122.174 258.447L122.753 260.535C141.468 255.347 161.951 244.416 176.963 223.926L175.215 222.646L173.468 221.365C159.16 240.894 139.605 251.367 121.596 256.359L122.174 258.447ZM175.215 222.646L177.312 222.098C175.942 216.852 175.17 211.363 175.076 205.708L172.91 205.744L170.743 205.78C170.843 211.783 171.663 217.616 173.119 223.193L175.215 222.646ZM172.91 205.744L175.076 205.727L175.066 204.515L172.9 204.532L170.733 204.55L170.743 205.762L172.91 205.744ZM172.9 204.532L175.067 204.532C175.067 203.256 175.102 201.988 175.171 200.727L173.007 200.609L170.844 200.492C170.771 201.828 170.733 203.175 170.733 204.532L172.9 204.532ZM173.007 200.609L174.803 199.397C157.378 173.601 126.029 159.062 99.2553 151.891L98.6948 153.984L98.1343 156.077C124.524 163.144 154.653 177.309 171.212 201.822L173.007 200.609ZM98.6948 153.984L98.134 151.892C94.4764 152.872 90.6332 153.399 86.6665 153.399L86.6665 155.565L86.6665 157.732C91.0188 157.732 95.239 157.154 99.2556 156.077L98.6948 153.984ZM86.6665 155.565L86.6665 153.399C62.2556 153.399 42.467 133.61 42.467 109.199H40.3003H38.1336C38.1337 136.003 59.8624 157.732 86.6665 157.732L86.6665 155.565ZM40.3003 109.199H42.467C42.467 84.7883 62.2556 64.9998 86.6665 64.9997L86.6665 62.833L86.6665 60.6663C59.8624 60.6665 38.1336 82.3951 38.1336 109.199H40.3003ZM86.6665 62.833L86.6665 64.9997C111.077 64.9998 130.866 84.7883 130.866 109.199H133.033H135.199C135.199 82.3951 113.471 60.6665 86.6665 60.6663L86.6665 62.833ZM133.033 109.199H130.866C130.866 109.589 130.857 109.982 130.845 110.387L133.011 110.45L135.177 110.514C135.189 110.092 135.199 109.651 135.199 109.199H133.033ZM133.011 110.45L131.419 111.92C151.045 133.189 177.033 144.773 199.64 150.455L200.168 148.354L200.697 146.252C178.61 140.702 153.482 129.439 134.604 108.981L133.011 110.45ZM200.168 148.354L201.51 150.055C203.438 148.535 205.448 147.116 207.532 145.805L206.378 143.971L205.225 142.137C203.01 143.53 200.875 145.038 198.827 146.652L200.168 148.354ZM206.378 143.971L208.476 144.514C214.763 120.258 214.176 101.298 210.91 86.9705L208.797 87.4521L206.685 87.9338C209.785 101.531 210.408 119.786 204.281 143.427L206.378 143.971ZM208.797 87.4521L209.977 85.6346C198.024 77.8793 190.055 64.5134 189.806 49.2693L187.639 49.3047L185.473 49.3401C185.746 66.0865 194.506 80.7621 207.618 89.2697L208.797 87.4521ZM187.639 49.3047L189.806 49.2883L189.8 48.5158L187.633 48.5322L185.467 48.5487L185.473 49.3211L187.639 49.3047ZM187.633 48.5322L189.8 48.5322C189.8 24.1215 209.589 4.33287 234 4.33268L234 2.16602L233.999 -0.000651121C207.196 -0.000442028 185.467 21.7283 185.467 48.5322L187.633 48.5322ZM234 2.16602L233.985 4.33264L234.585 4.33654L234.599 2.16992L234.613 0.00330114L234.014 -0.000605106L234 2.16602ZM31.0591 172.041L31.0042 174.207C45.0526 174.563 56.3328 186.064 56.3328 200.199H58.4995H60.6662C60.6662 183.708 47.5061 170.29 31.1139 169.875L31.0591 172.041ZM58.4995 200.199H56.3328C56.3328 214.334 45.0526 225.835 31.0042 226.19L31.0591 228.356L31.1139 230.522C47.5059 230.107 60.6661 216.691 60.6662 200.199H58.4995ZM31.0591 228.356L31.0329 226.19L30.3063 226.199L30.3325 228.365L30.3587 230.532L31.0853 230.523L31.0591 228.356ZM30.3325 228.365L30.3326 226.199C15.9735 226.198 4.3332 214.558 4.33317 200.199H2.1665H-0.00016284C-0.000124454 216.952 13.5803 230.531 30.3325 230.532L30.3325 228.365ZM2.1665 200.199H4.33317C4.33317 185.84 15.9735 174.199 30.3326 174.199L30.3325 172.032L30.3325 169.866C13.5801 169.866 -0.00016284 183.447 -0.00016284 200.199H2.1665ZM30.3325 172.032L30.3063 174.199L31.0329 174.208L31.0591 172.041L31.0853 169.875L30.3587 169.866L30.3325 172.032ZM30.3325 174.632L30.3325 172.465C15.0161 172.466 2.59945 184.883 2.59945 200.199H4.76611H6.93278C6.93278 187.276 17.4095 176.799 30.3326 176.799L30.3325 174.632ZM4.76611 200.199L2.59964 200.228L2.60843 200.888L4.7749 200.859L6.94138 200.831L6.93259 200.17L4.76611 200.199ZM4.7749 200.859L2.60893 200.914C2.98881 215.901 15.2552 227.932 30.3325 227.932L30.3325 225.766L30.3326 223.599C17.6117 223.599 7.26135 213.447 6.94087 200.804L4.7749 200.859ZM30.3325 225.766V227.932C45.6492 227.932 58.0665 215.516 58.0666 200.199H55.8999H53.7332C53.7332 213.122 43.2561 223.599 30.3325 223.599V225.766ZM55.8999 200.199L58.0664 200.17L58.0576 199.51L55.8911 199.539L53.7246 199.568L53.7334 200.228L55.8999 200.199ZM55.8911 199.539L58.0571 199.484C57.6772 184.497 45.4102 172.465 30.3325 172.465V174.632V176.799C43.0536 176.799 53.4047 186.951 53.7251 199.594L55.8911 199.539Z" fill="white"/>
<path d="M234.97 178.618C241.834 178.618 247.381 180.802 251.61 185.17C255.84 189.469 257.954 195.501 257.954 203.266V237.066H243.394V205.242C243.394 200.666 242.25 197.165 239.962 194.738C237.674 192.242 234.554 190.994 230.602 190.994C226.581 190.994 223.392 192.242 221.034 194.738C218.746 197.165 217.602 200.666 217.602 205.242V237.066H203.042V179.45H217.602V186.626C219.544 184.13 222.005 182.189 224.986 180.802C228.037 179.346 231.365 178.618 234.97 178.618ZM325.36 207.01C325.36 209.09 325.221 210.962 324.944 212.626H282.824C283.171 216.786 284.627 220.045 287.192 222.402C289.757 224.76 292.912 225.938 296.656 225.938C302.064 225.938 305.912 223.616 308.2 218.97H323.904C322.24 224.517 319.051 229.093 314.336 232.698C309.621 236.234 303.832 238.002 296.968 238.002C291.421 238.002 286.429 236.789 281.992 234.362C277.624 231.866 274.192 228.365 271.696 223.858C269.269 219.352 268.056 214.152 268.056 208.258C268.056 202.296 269.269 197.061 271.696 192.554C274.123 188.048 277.52 184.581 281.888 182.154C286.256 179.728 291.283 178.514 296.968 178.514C302.445 178.514 307.333 179.693 311.632 182.05C316 184.408 319.363 187.77 321.72 192.138C324.147 196.437 325.36 201.394 325.36 207.01ZM310.28 202.85C310.211 199.106 308.859 196.125 306.224 193.906C303.589 191.618 300.365 190.474 296.552 190.474C292.947 190.474 289.896 191.584 287.4 193.802C284.973 195.952 283.483 198.968 282.928 202.85H310.28ZM352.94 191.41V219.282C352.94 221.224 353.39 222.645 354.292 223.546C355.262 224.378 356.857 224.794 359.076 224.794H365.836V237.066H356.684C344.412 237.066 338.276 231.104 338.276 219.178V191.41H331.412V179.45H338.276V165.202H352.94V179.45H365.836V191.41H352.94ZM390.868 160.106V237.066H376.308V160.106H390.868ZM401.509 208.05C401.509 202.226 402.653 197.061 404.941 192.554C407.298 188.048 410.453 184.581 414.405 182.154C418.426 179.728 422.898 178.514 427.821 178.514C432.12 178.514 435.864 179.381 439.053 181.114C442.312 182.848 444.912 185.032 446.853 187.666V179.45H461.517V237.066H446.853V228.642C444.981 231.346 442.381 233.6 439.053 235.402C435.794 237.136 432.016 238.002 427.717 238.002C422.864 238.002 418.426 236.754 414.405 234.258C410.453 231.762 407.298 228.261 404.941 223.754C402.653 219.178 401.509 213.944 401.509 208.05ZM446.853 208.258C446.853 204.722 446.16 201.706 444.773 199.21C443.386 196.645 441.514 194.704 439.157 193.386C436.8 192 434.269 191.306 431.565 191.306C428.861 191.306 426.365 191.965 424.077 193.282C421.789 194.6 419.917 196.541 418.461 199.106C417.074 201.602 416.381 204.584 416.381 208.05C416.381 211.517 417.074 214.568 418.461 217.202C419.917 219.768 421.789 221.744 424.077 223.13C426.434 224.517 428.93 225.21 431.565 225.21C434.269 225.21 436.8 224.552 439.157 223.234C441.514 221.848 443.386 219.906 444.773 217.41C446.16 214.845 446.853 211.794 446.853 208.258ZM490.298 187.874C492.17 185.101 494.735 182.848 497.994 181.114C501.322 179.381 505.1 178.514 509.33 178.514C514.252 178.514 518.69 179.728 522.642 182.154C526.663 184.581 529.818 188.048 532.106 192.554C534.463 196.992 535.642 202.157 535.642 208.05C535.642 213.944 534.463 219.178 532.106 223.754C529.818 228.261 526.663 231.762 522.642 234.258C518.69 236.754 514.252 238.002 509.33 238.002C505.031 238.002 501.252 237.17 497.994 235.506C494.804 233.773 492.239 231.554 490.298 228.85V237.066H475.738V160.106H490.298V187.874ZM520.77 208.05C520.77 204.584 520.042 201.602 518.586 199.106C517.199 196.541 515.327 194.6 512.97 193.282C510.682 191.965 508.186 191.306 505.482 191.306C502.847 191.306 500.351 192 497.994 193.386C495.706 194.704 493.834 196.645 492.378 199.21C490.991 201.776 490.298 204.792 490.298 208.258C490.298 211.725 490.991 214.741 492.378 217.306C493.834 219.872 495.706 221.848 497.994 223.234C500.351 224.552 502.847 225.21 505.482 225.21C508.186 225.21 510.682 224.517 512.97 223.13C515.327 221.744 517.199 219.768 518.586 217.202C520.042 214.637 520.77 211.586 520.77 208.05Z" fill="white"/>
</svg>
