<svg width="900" height="900" viewBox="0 0 900 900" fill="none" xmlns="http://www.w3.org/2000/svg">
<path d="M0 0H900V900H0V0Z" fill="black"/>
<path d="M396.144 226.837C421.949 227.164 442.767 248.184 442.767 274.066L442.758 274.95C442.425 293.086 431.869 308.716 416.619 316.337C413.642 330.73 415.619 345.402 420.292 359.126C429.705 361.021 438.455 364.742 446.158 369.902C479.019 354.435 500.379 324.451 512.098 298.696C511.532 295.772 511.234 292.754 511.234 289.667C511.234 263.581 532.381 242.433 558.467 242.433C584.553 242.433 605.7 263.581 605.7 289.667C605.7 315.753 584.553 336.9 558.467 336.9C555.492 336.9 552.58 336.619 549.756 336.092C524.281 346.021 505.309 362.224 491.58 379.8H486.126C500.493 360.559 520.856 342.561 548.766 331.825L549.354 331.6L549.971 331.724C552.717 332.275 555.557 332.566 558.467 332.566L559.574 332.553C582.387 331.974 600.775 313.587 601.353 290.774L601.366 289.667C601.366 266.344 582.755 247.368 559.574 246.78L558.467 246.767C534.774 246.767 515.568 265.974 515.568 289.667L515.582 290.801C515.651 293.439 515.957 296.016 516.481 298.513L516.626 299.203L516.336 299.847C504.313 326.556 481.925 358.326 446.86 374.358L445.736 374.872L444.722 374.167C436.931 368.751 427.956 364.921 418.264 363.147L417.029 362.922L416.611 361.738C411.349 346.833 409.005 330.514 412.608 314.38L412.838 313.345L413.798 312.893C428.361 306.029 438.433 291.223 438.433 274.066C438.433 250.374 419.226 231.167 395.533 231.167C371.841 231.167 352.634 250.374 352.634 274.066C352.634 289.1 360.367 302.326 372.08 309.989L372.641 310.351L373.39 310.824L373.592 311.688C377.039 326.395 377.69 345.9 371.138 370.881L370.918 371.718L370.183 372.174C367.808 373.643 365.529 375.254 363.362 376.995L362.526 377.666L361.486 377.409C338.437 371.711 311.705 359.905 291.63 337.939L291.031 337.283L291.065 336.396C291.075 336.114 291.084 335.835 291.09 335.559L291.1 334.733C291.1 311.411 272.489 292.435 249.308 291.848L248.2 291.834C224.507 291.834 205.301 311.04 205.301 334.733L205.315 335.841C205.902 359.022 224.878 377.633 248.2 377.633L248.943 377.627C252.648 377.564 256.237 377.028 259.655 376.084L260.221 375.928L260.788 376.079C287.876 383.282 319.958 398.05 337.665 424.572L338.071 425.179L338.027 425.906C337.944 427.283 337.901 428.67 337.901 430.066C337.901 436.234 338.72 442.207 340.256 447.883L340.526 448.881L339.92 449.719C324.541 470.998 303.375 482.216 284.17 487.452L283.406 487.66L282.689 487.327C277.382 484.867 271.489 483.457 265.27 483.371L264.667 483.367C240.974 483.367 221.767 502.574 221.767 526.267C221.767 549.96 240.974 569.166 264.667 569.166L265.775 569.152C288.956 568.565 307.567 549.589 307.567 526.267C307.567 525.074 307.515 523.89 307.419 522.716L307.336 521.709L308.055 520.999C329.888 499.406 347.989 488.303 362.297 483.54L363.395 483.175L364.309 483.883C368.534 487.156 373.154 489.941 378.085 492.156L379.075 492.592L380.195 493.073L380.365 494.279C385.533 530.92 370.556 562.872 353.446 584.828L353.059 585.324L352.467 585.536C335.889 591.474 324.033 607.321 324.033 625.934L324.047 627.041C324.635 650.222 343.611 668.833 366.934 668.833L368.041 668.819C390.854 668.241 409.241 649.854 409.82 627.041L409.833 625.934C409.833 615.55 406.147 606.033 400.009 598.611L399.556 598.062L399.516 597.353C397.166 555.702 408.871 521.061 422.52 496.748L422.964 495.956L423.84 495.718C424.591 495.513 425.337 495.296 426.077 495.066H430.277C444.066 507.107 460.061 525.81 473.466 553.738L473.877 554.595L473.526 555.477C471.574 560.379 470.5 565.728 470.5 571.333C470.5 595.026 489.708 614.233 513.401 614.233L514.508 614.22C537.689 613.632 556.3 594.656 556.3 571.333C556.3 548.403 538.309 529.675 515.674 528.493L515.156 528.466L514.707 528.207C501.011 520.331 485.243 509.096 472.183 495.066H478.186C490.118 507.162 504.044 517.032 516.435 524.199C541.108 525.765 560.634 546.266 560.634 571.333L560.63 571.943C560.303 597.748 539.283 618.567 513.401 618.567C487.518 618.567 466.497 597.748 466.17 571.943L466.166 571.333C466.166 565.51 467.223 559.929 469.154 554.773C456.329 528.339 441.202 510.523 428.14 498.958C427.387 499.201 426.628 499.431 425.864 499.649C412.809 523.194 401.701 556.477 403.806 596.415C410.287 604.501 414.167 614.766 414.167 625.934C414.167 652.02 393.02 673.167 366.934 673.167C340.848 673.167 319.7 652.02 319.699 625.934C319.699 605.66 332.473 588.379 350.402 581.679C366.726 560.547 380.661 530.404 376.231 496.073C371.375 493.885 366.804 491.177 362.59 488.021C349.418 492.653 332.467 503.097 311.811 523.385C311.869 524.336 311.901 525.297 311.901 526.267L311.897 526.877C311.57 552.682 290.549 573.5 264.667 573.5C238.785 573.5 217.764 552.682 217.437 526.877L217.433 526.267C217.433 500.18 238.581 479.033 264.667 479.033C271.464 479.033 277.928 480.474 283.772 483.062C301.809 478.007 321.389 467.497 335.807 448C334.441 442.643 333.673 437.048 333.577 431.293L333.567 430.066C333.567 428.833 333.599 427.608 333.66 426.391C316.856 401.71 286.597 387.511 260.23 380.415C256.388 381.424 252.356 381.967 248.2 381.967C222.114 381.967 200.967 360.82 200.967 334.733C200.967 308.647 222.114 287.5 248.2 287.5C274.286 287.5 295.434 308.647 295.434 334.733C295.434 335.044 295.429 335.352 295.422 335.657C314.379 356.067 339.451 367.339 361.501 372.941C363.32 371.525 365.209 370.196 367.159 368.956C373.193 345.486 372.632 327.234 369.564 313.52C356.964 305.21 348.571 291.022 348.307 274.854L348.3 274.066C348.3 247.98 369.447 226.833 395.533 226.833L396.144 226.837ZM192.615 396.709C208.304 397.106 220.901 409.949 220.901 425.733C220.901 441.518 208.304 454.359 192.615 454.757L191.866 454.767C175.832 454.766 162.833 441.768 162.833 425.733C162.833 409.699 175.832 396.699 191.866 396.699L192.615 396.709ZM191.866 401.033C178.225 401.033 167.167 412.092 167.167 425.733L167.175 426.371C167.513 439.718 178.438 450.432 191.866 450.433C205.508 450.432 216.567 439.375 216.567 425.733L216.559 425.096C216.221 411.749 205.295 401.033 191.866 401.033Z" fill="black"/>
<path d="M396.133 227.704C421.464 228.025 441.899 248.659 441.899 274.066L441.891 274.934C441.562 292.885 431.03 308.336 415.856 315.748C412.679 330.631 414.765 345.788 419.635 359.88C429.284 361.753 438.239 365.566 446.079 370.896C479.556 355.321 501.207 324.834 513.002 298.802C512.411 295.848 512.1 292.793 512.1 289.667C512.1 264.06 532.859 243.3 558.467 243.3C584.074 243.3 604.833 264.059 604.833 289.667C604.833 315.274 584.074 336.033 558.467 336.033C555.459 336.033 552.519 335.741 549.671 335.193C523.652 345.281 504.362 361.862 490.481 379.8H487.211C501.474 360.864 521.597 343.206 549.077 332.635L549.429 332.499L549.8 332.573C552.601 333.136 555.499 333.434 558.467 333.434L559.596 333.419C582.87 332.829 601.629 314.071 602.219 290.797L602.233 289.667C602.233 265.873 583.246 246.513 559.596 245.914L558.467 245.899C534.295 245.9 514.7 265.495 514.7 289.667L514.704 290.246C514.741 293.138 515.061 295.961 515.633 298.69L515.719 299.104L515.546 299.49C503.57 326.094 481.303 357.657 446.499 373.57L445.824 373.878L445.216 373.455C437.326 367.97 428.235 364.092 418.419 362.295L417.678 362.16L417.427 361.449C412.203 346.65 409.895 330.502 413.453 314.569L413.592 313.948L414.167 313.677C429.022 306.676 439.3 291.571 439.3 274.066C439.299 249.895 419.705 230.3 395.533 230.3C371.362 230.3 351.766 249.895 351.766 274.066C351.766 289.404 359.657 302.898 371.605 310.715L372.177 311.083L372.627 311.367L372.748 311.885C376.16 326.444 376.819 345.805 370.3 370.661L370.168 371.163L369.726 371.437C367.322 372.925 365.015 374.556 362.819 376.319L362.317 376.722L361.693 376.567C338.749 370.895 312.193 359.154 292.269 337.354L291.91 336.961L291.93 336.428C291.941 336.143 291.95 335.86 291.957 335.578L291.967 334.733C291.967 310.94 272.979 291.581 249.33 290.981L248.2 290.967C224.028 290.967 204.433 310.562 204.433 334.733L204.448 335.863C205.047 359.513 224.406 378.5 248.2 378.5L248.958 378.493C252.737 378.429 256.398 377.883 259.885 376.92L260.224 376.826L260.565 376.916C287.577 384.098 319.41 398.792 336.944 425.054L337.187 425.417L337.161 425.854C337.077 427.247 337.033 428.652 337.033 430.066C337.033 436.311 337.863 442.36 339.419 448.109L339.581 448.708L339.218 449.211C323.981 470.294 303.004 481.418 283.941 486.615L283.483 486.74L283.052 486.541C277.638 484.031 271.625 482.592 265.282 482.505L264.667 482.5C240.495 482.5 220.899 502.095 220.899 526.267C220.899 550.438 240.495 570.033 264.667 570.033L265.797 570.019C289.446 569.419 308.433 550.06 308.433 526.267C308.433 525.049 308.38 523.842 308.282 522.646L308.233 522.041L308.664 521.615C330.439 500.079 348.431 489.07 362.571 484.362L363.229 484.144L363.777 484.568C368.341 488.104 373.361 491.077 378.732 493.388L379.404 493.677L379.506 494.4C384.63 530.731 369.785 562.451 352.761 584.295L352.53 584.593L352.175 584.72C335.263 590.777 323.166 606.943 323.166 625.934L323.18 627.063C323.78 650.713 343.14 669.7 366.933 669.7L368.063 669.686C391.337 669.096 410.095 650.337 410.685 627.063L410.7 625.934C410.7 615.341 406.938 605.63 400.677 598.059L400.405 597.729L400.381 597.304C398.042 555.845 409.692 521.367 423.275 497.172L423.542 496.697L424.067 496.555C425.469 496.173 426.854 495.748 428.219 495.281L428.847 495.066H428.959L429.492 495.53C443.244 507.488 459.262 526.148 472.684 554.113L472.931 554.627L472.72 555.156C470.729 560.159 469.633 565.617 469.633 571.333C469.633 595.505 489.229 615.1 513.4 615.101L514.53 615.086C538.179 614.486 557.167 595.127 557.167 571.333C557.167 547.94 538.812 528.832 515.719 527.627L515.409 527.611L515.138 527.456C501.677 519.715 486.24 508.735 473.37 495.066H476.971C489.165 507.574 503.497 517.735 516.177 525.052C540.492 526.489 559.766 546.658 559.766 571.333L559.762 571.933C559.441 597.264 538.807 617.7 513.4 617.7C487.993 617.7 467.358 597.264 467.037 571.933L467.033 571.333C467.033 565.486 468.119 559.89 470.096 554.734C457.064 527.755 441.626 509.659 428.341 497.98C427.331 498.313 426.311 498.624 425.282 498.913C412.056 522.648 400.764 556.31 402.955 596.74C409.422 604.71 413.3 614.87 413.3 625.934C413.299 651.541 392.541 672.3 366.933 672.3C341.326 672.3 320.566 651.541 320.566 625.934C320.566 605.947 333.213 588.921 350.935 582.405C367.488 561.054 381.705 530.42 377.026 495.478C371.924 493.22 367.136 490.383 362.746 487.051C349.29 491.681 331.988 502.292 310.918 523.045C310.991 524.108 311.033 525.182 311.033 526.267L311.029 526.866C310.708 552.197 290.074 572.633 264.667 572.633C239.259 572.633 218.625 552.197 218.303 526.866L218.3 526.267C218.3 500.659 239.059 479.901 264.667 479.9C271.451 479.9 277.897 481.361 283.708 483.981C302.07 478.891 322.089 468.189 336.749 448.18C335.336 442.768 334.54 437.107 334.443 431.278L334.433 430.066C334.433 428.75 334.47 427.442 334.541 426.144C317.549 400.989 286.81 386.637 260.228 379.519C256.391 380.547 252.359 381.1 248.2 381.1C222.592 381.099 201.834 360.341 201.834 334.733C201.834 309.126 222.592 288.367 248.2 288.367C273.807 288.367 294.566 309.126 294.566 334.733C294.566 335.154 294.557 335.571 294.545 335.984C313.797 356.848 339.355 368.272 361.702 373.888C363.69 372.321 365.762 370.857 367.912 369.505C374.119 345.556 373.514 326.949 370.331 312.986C357.799 304.855 349.434 290.834 349.173 274.839L349.167 274.066C349.167 248.459 369.926 227.7 395.533 227.7L396.133 227.704ZM192.593 397.575C207.813 397.961 220.033 410.42 220.033 425.733C220.033 441.047 207.813 453.505 192.593 453.891L191.866 453.899C176.31 453.899 163.7 441.289 163.7 425.733C163.7 410.178 176.31 397.567 191.866 397.566L192.593 397.575ZM191.866 400.166C177.746 400.166 166.3 411.614 166.3 425.733L166.308 426.394C166.659 440.208 177.967 451.299 191.866 451.3C205.986 451.3 217.433 439.853 217.433 425.733L217.425 425.073C217.074 411.258 205.765 400.166 191.866 400.166Z" fill="black"/>
<path d="M396.133 227.704L396.16 225.538L396.147 225.537L396.133 227.704ZM441.899 274.066L444.066 274.086L444.066 274.076V274.066L441.899 274.066ZM441.891 274.934L444.058 274.973L444.058 274.963L444.058 274.953L441.891 274.934ZM415.856 315.748L414.905 313.801L413.957 314.264L413.737 315.296L415.856 315.748ZM419.635 359.88L417.587 360.588L417.995 361.769L419.222 362.007L419.635 359.88ZM446.079 370.896L444.861 372.687L445.878 373.379L446.993 372.86L446.079 370.896ZM513.002 298.802L514.975 299.696L515.263 299.061L515.126 298.377L513.002 298.802ZM512.1 289.667H509.934V289.667L512.1 289.667ZM558.467 243.3V241.133V243.3ZM604.833 289.667L606.999 289.667V289.667H604.833ZM558.467 336.033V338.2V336.033ZM549.671 335.193L550.079 333.066L549.468 332.948L548.887 333.173L549.671 335.193ZM490.481 379.8V381.966H491.544L492.195 381.126L490.481 379.8ZM487.211 379.8L485.48 378.496L482.866 381.966H487.211V379.8ZM549.077 332.635L549.855 334.657L549.855 334.657L549.077 332.635ZM549.429 332.499L549.855 330.375L549.238 330.251L548.651 330.477L549.429 332.499ZM549.8 332.573L550.226 330.449L550.226 330.449L549.8 332.573ZM558.467 333.434V335.6H558.481L558.495 335.6L558.467 333.434ZM559.596 333.419L559.625 335.585L559.638 335.585L559.651 335.585L559.596 333.419ZM602.219 290.797L604.384 290.852L604.385 290.838L604.385 290.825L602.219 290.797ZM602.233 289.667L604.4 289.695L604.4 289.681V289.667H602.233ZM559.596 245.914L559.651 243.748L559.638 243.748L559.625 243.748L559.596 245.914ZM558.467 245.899L558.495 243.733L558.481 243.733H558.467V245.899ZM514.7 289.667H512.533V289.674L512.533 289.682L514.7 289.667ZM514.704 290.246L512.537 290.261L512.537 290.274L514.704 290.246ZM515.633 298.69L513.512 299.135L513.512 299.136L515.633 298.69ZM515.719 299.104L517.695 299.995L517.985 299.351L517.84 298.659L515.719 299.104ZM515.546 299.49L513.57 298.6L513.57 298.601L515.546 299.49ZM446.499 373.57L447.397 375.542L447.4 375.541L446.499 373.57ZM445.824 373.878L444.587 375.657L445.6 376.361L446.723 375.849L445.824 373.878ZM445.216 373.455L443.979 375.234L443.979 375.234L445.216 373.455ZM418.419 362.295L418.809 360.164L418.807 360.163L418.419 362.295ZM417.678 362.16L415.635 362.881L416.054 364.067L417.29 364.292L417.678 362.16ZM417.427 361.449L415.384 362.17L415.384 362.17L417.427 361.449ZM413.453 314.569L415.567 315.042L415.567 315.041L413.453 314.569ZM413.592 313.948L412.667 311.989L411.708 312.441L411.477 313.476L413.592 313.948ZM414.167 313.677L413.243 311.717L413.242 311.717L414.167 313.677ZM439.3 274.066H441.466V274.066L439.3 274.066ZM395.533 230.3V228.133H395.533L395.533 230.3ZM351.766 274.066L349.6 274.066V274.066H351.766ZM371.605 310.715L370.419 312.528L370.425 312.532L370.432 312.536L371.605 310.715ZM372.177 311.083L371.003 312.904L371.011 312.91L371.02 312.915L372.177 311.083ZM372.627 311.367L374.736 310.874L374.534 310.009L373.783 309.535L372.627 311.367ZM372.748 311.885L370.638 312.378L370.638 312.379L372.748 311.885ZM370.3 370.661L372.395 371.212L372.395 371.211L370.3 370.661ZM370.168 371.163L371.309 373.005L372.044 372.55L372.263 371.713L370.168 371.163ZM369.726 371.437L370.867 373.279L370.867 373.278L369.726 371.437ZM362.819 376.319L364.174 378.01L364.176 378.009L362.819 376.319ZM362.317 376.722L361.797 378.825L362.837 379.082L363.672 378.412L362.317 376.722ZM361.693 376.567L362.213 374.464L362.213 374.464L361.693 376.567ZM292.269 337.354L290.669 338.816L290.67 338.816L292.269 337.354ZM291.91 336.961L289.745 336.878L289.711 337.766L290.31 338.422L291.91 336.961ZM291.93 336.428L294.095 336.511L294.096 336.51L291.93 336.428ZM291.957 335.578L294.123 335.627L294.123 335.615L294.123 335.603L291.957 335.578ZM291.967 334.733L294.133 334.758L294.133 334.746V334.733H291.967ZM249.33 290.981L249.385 288.815L249.371 288.815L249.358 288.815L249.33 290.981ZM248.2 290.967L248.228 288.8L248.214 288.8H248.2L248.2 290.967ZM204.433 334.733H202.267V334.747L202.267 334.761L204.433 334.733ZM204.448 335.863L202.282 335.891L202.282 335.905L202.282 335.918L204.448 335.863ZM248.2 378.5L248.2 380.667H248.21L248.219 380.667L248.2 378.5ZM248.958 378.493L248.977 380.66L248.986 380.66L248.995 380.66L248.958 378.493ZM259.885 376.92L259.308 374.831L259.307 374.832L259.885 376.92ZM260.224 376.826L260.777 374.731L260.212 374.582L259.648 374.738L260.224 376.826ZM260.565 376.916L261.122 374.822L261.117 374.821L260.565 376.916ZM336.944 425.054L335.142 426.257L335.144 426.259L336.944 425.054ZM337.187 425.417L339.35 425.548L339.394 424.819L338.988 424.212L337.187 425.417ZM337.161 425.854L334.998 425.723L334.998 425.723L337.161 425.854ZM337.033 430.066L334.866 430.066V430.066H337.033ZM339.419 448.109L337.327 448.675L337.327 448.676L339.419 448.109ZM339.581 448.708L341.337 449.977L341.942 449.139L341.672 448.142L339.581 448.708ZM339.218 449.211L340.974 450.48L340.974 450.48L339.218 449.211ZM283.941 486.615L283.371 484.525L283.371 484.525L283.941 486.615ZM283.483 486.74L282.574 488.707L283.291 489.039L284.054 488.83L283.483 486.74ZM283.052 486.541L282.141 488.507L282.143 488.507L283.052 486.541ZM265.282 482.505L265.312 480.338L265.299 480.338L265.282 482.505ZM264.667 482.5L264.684 480.333L264.675 480.333H264.667L264.667 482.5ZM220.899 526.267H218.733H220.899ZM264.667 570.033L264.667 572.2H264.681L264.695 572.2L264.667 570.033ZM265.797 570.019L265.825 572.185L265.838 572.185L265.852 572.185L265.797 570.019ZM308.433 526.267H310.6H308.433ZM308.282 522.646L306.122 522.82L306.123 522.822L308.282 522.646ZM308.233 522.041L306.71 520.5L305.992 521.21L306.074 522.215L308.233 522.041ZM308.664 521.615L310.187 523.156L310.187 523.156L308.664 521.615ZM362.571 484.362L361.888 482.306L361.887 482.307L362.571 484.362ZM363.229 484.144L364.557 482.431L363.643 481.723L362.546 482.087L363.229 484.144ZM363.777 484.568L362.449 486.281L362.45 486.281L363.777 484.568ZM378.732 493.388L379.588 491.397L379.588 491.397L378.732 493.388ZM379.404 493.677L381.55 493.376L381.38 492.168L380.26 491.686L379.404 493.677ZM379.506 494.4L377.36 494.702L377.36 494.703L379.506 494.4ZM352.761 584.295L351.052 582.963L351.051 582.965L352.761 584.295ZM352.53 584.593L353.259 586.633L353.853 586.421L354.241 585.922L352.53 584.593ZM352.175 584.72L351.446 582.679L351.444 582.68L352.175 584.72ZM323.166 625.934H320.999V625.948L320.999 625.962L323.166 625.934ZM323.18 627.063L321.014 627.092L321.014 627.105L321.014 627.118L323.18 627.063ZM366.933 669.7L366.933 671.867H366.947L366.961 671.867L366.933 669.7ZM368.063 669.686L368.091 671.852L368.105 671.852L368.118 671.852L368.063 669.686ZM410.685 627.063L412.851 627.118L412.852 627.105L412.852 627.092L410.685 627.063ZM410.7 625.934L412.866 625.962L412.867 625.948V625.934H410.7ZM400.677 598.059L399.005 599.437L399.007 599.439L400.677 598.059ZM400.405 597.729L398.242 597.854L398.283 598.561L398.734 599.108L400.405 597.729ZM400.381 597.304L398.217 597.426L398.217 597.428L400.381 597.304ZM423.275 497.172L421.386 496.111L421.386 496.111L423.275 497.172ZM423.542 496.697L422.974 494.606L422.098 494.844L421.653 495.636L423.542 496.697ZM424.067 496.555L424.635 498.646L424.636 498.645L424.067 496.555ZM428.219 495.281L428.92 497.332L428.921 497.331L428.219 495.281ZM428.847 495.066V492.9H428.487L428.146 493.016L428.847 495.066ZM428.959 495.066L430.381 493.432L429.769 492.9H428.959V495.066ZM429.492 495.53L428.07 497.165L428.07 497.165L429.492 495.53ZM472.684 554.113L470.731 555.051L470.732 555.052L472.684 554.113ZM472.931 554.627L474.944 555.429L475.296 554.545L474.884 553.688L472.931 554.627ZM472.72 555.156L470.708 554.354L470.707 554.355L472.72 555.156ZM469.633 571.333L467.466 571.333V571.333H469.633ZM513.4 615.101V617.267H513.414L513.428 617.267L513.4 615.101ZM514.53 615.086L514.558 617.252L514.572 617.252L514.585 617.252L514.53 615.086ZM557.167 571.333H559.333V571.333L557.167 571.333ZM515.719 527.627L515.832 525.463L515.828 525.463L515.719 527.627ZM515.409 527.611L514.33 529.49L514.781 529.749L515.3 529.775L515.409 527.611ZM515.138 527.456L514.058 529.334L514.06 529.335L515.138 527.456ZM473.37 495.066V492.9H468.354L471.792 496.552L473.37 495.066ZM476.971 495.066L478.523 493.554L477.885 492.9H476.971V495.066ZM516.177 525.052L515.094 526.928L515.537 527.184L516.049 527.215L516.177 525.052ZM559.766 571.333L561.933 571.347V571.333H559.766ZM559.762 571.933L561.929 571.96L561.929 571.947L559.762 571.933ZM513.4 617.7V619.867H513.4L513.4 617.7ZM467.037 571.933L464.87 571.947L464.87 571.96L467.037 571.933ZM467.033 571.333H464.866L464.866 571.347L467.033 571.333ZM470.096 554.734L472.119 555.51L472.455 554.636L472.047 553.792L470.096 554.734ZM428.341 497.98L429.771 496.353L428.84 495.534L427.662 495.923L428.341 497.98ZM425.282 498.913L424.697 496.827L423.828 497.071L423.389 497.858L425.282 498.913ZM402.955 596.74L400.791 596.857L400.829 597.559L401.272 598.105L402.955 596.74ZM413.3 625.934H415.466H413.3ZM366.933 672.3L366.933 674.466H366.933L366.933 672.3ZM320.566 625.934H318.399H320.566ZM350.935 582.405L351.683 584.439L352.267 584.224L352.648 583.733L350.935 582.405ZM377.026 495.478L379.174 495.19L379.013 493.987L377.903 493.496L377.026 495.478ZM362.746 487.051L364.056 485.325L363.135 484.626L362.041 485.002L362.746 487.051ZM310.918 523.045L309.397 521.501L308.687 522.201L308.756 523.195L310.918 523.045ZM311.033 526.267L313.2 526.281V526.267H311.033ZM311.029 526.866L313.196 526.894L313.196 526.88L311.029 526.866ZM264.667 572.633L264.667 574.799H264.667L264.667 572.633ZM218.303 526.866L216.137 526.88L216.137 526.894L218.303 526.866ZM218.3 526.267H216.133L216.133 526.281L218.3 526.267ZM264.667 479.9L264.667 477.734H264.667L264.667 479.9ZM283.708 483.981L282.817 485.957L283.531 486.279L284.287 486.069L283.708 483.981ZM336.749 448.18L338.497 449.46L339.105 448.629L338.845 447.632L336.749 448.18ZM334.443 431.278L332.277 431.296L332.277 431.305L332.277 431.314L334.443 431.278ZM334.433 430.066L332.267 430.066V430.075L332.267 430.084L334.433 430.066ZM334.541 426.144L336.704 426.261L336.744 425.534L336.336 424.931L334.541 426.144ZM260.228 379.519L260.789 377.426L260.228 377.275L259.667 377.426L260.228 379.519ZM248.2 381.1L248.2 383.266H248.2L248.2 381.1ZM201.834 334.733H199.667H201.834ZM248.2 288.367L248.2 286.201H248.2L248.2 288.367ZM294.566 334.733H296.733H294.566ZM294.545 335.984L292.379 335.921L292.353 336.804L292.952 337.454L294.545 335.984ZM361.702 373.888L361.174 375.989L362.207 376.249L363.043 375.589L361.702 373.888ZM367.912 369.505L369.066 371.339L369.793 370.881L370.009 370.048L367.912 369.505ZM370.331 312.986L372.443 312.505L372.248 311.647L371.51 311.169L370.331 312.986ZM349.173 274.839L347.006 274.855L347.006 274.865L347.006 274.874L349.173 274.839ZM349.167 274.066L347 274.066V274.075L347 274.083L349.167 274.066ZM395.533 227.7L395.547 225.534H395.533L395.533 227.7ZM192.593 397.575L192.647 395.409L192.633 395.409L192.619 395.409L192.593 397.575ZM220.033 425.733H222.2H220.033ZM192.593 453.891L192.619 456.057L192.633 456.057L192.647 456.057L192.593 453.891ZM191.866 453.899L191.866 456.066H191.879L191.892 456.066L191.866 453.899ZM163.7 425.733H161.533H163.7ZM191.866 397.566L191.892 395.4L191.879 395.4H191.866L191.866 397.566ZM191.866 400.166V397.999H191.866L191.866 400.166ZM166.3 425.733H164.133V425.748L164.133 425.762L166.3 425.733ZM166.308 426.394L164.142 426.422L164.142 426.435L164.142 426.448L166.308 426.394ZM191.866 451.3L191.866 453.466H191.866V451.3ZM217.433 425.733H219.6V425.719L219.6 425.705L217.433 425.733ZM217.425 425.073L219.591 425.044L219.591 425.031L219.591 425.018L217.425 425.073ZM396.133 227.704L396.105 229.871C420.252 230.177 439.732 249.847 439.733 274.066L441.899 274.066L444.066 274.066C444.066 247.472 422.676 225.874 396.16 225.538L396.133 227.704ZM441.899 274.066L439.733 274.047L439.725 274.914L441.891 274.934L444.058 274.953L444.066 274.086L441.899 274.066ZM441.891 274.934L439.725 274.894C439.411 292.001 429.375 306.733 414.905 313.801L415.856 315.748L416.807 317.695C432.684 309.939 443.713 293.768 444.058 274.973L441.891 274.934ZM415.856 315.748L413.737 315.296C410.456 330.667 412.627 346.235 417.587 360.588L419.635 359.88L421.682 359.172C416.902 345.34 414.903 330.595 417.975 316.2L415.856 315.748ZM419.635 359.88L419.222 362.007C428.576 363.822 437.258 367.519 444.861 372.687L446.079 370.896L447.297 369.104C439.22 363.613 429.991 359.683 420.047 357.753L419.635 359.88ZM446.079 370.896L446.993 372.86C481.113 356.986 503.061 325.992 514.975 299.696L513.002 298.802L511.028 297.908C499.353 323.677 478 353.655 445.165 368.931L446.079 370.896ZM513.002 298.802L515.126 298.377C514.564 295.561 514.267 292.649 514.267 289.667L512.1 289.667L509.934 289.667C509.934 292.937 510.259 296.134 510.877 299.226L513.002 298.802ZM512.1 289.667H514.267C514.267 265.256 534.056 245.467 558.467 245.466V243.3V241.133C531.662 241.133 509.934 262.863 509.934 289.667H512.1ZM558.467 243.3V245.466C582.877 245.467 602.666 265.256 602.666 289.667H604.833H606.999C606.999 262.863 585.271 241.133 558.467 241.133V243.3ZM604.833 289.667L602.666 289.667C602.666 314.078 582.877 333.866 558.467 333.867V336.033V338.2C585.271 338.2 606.999 316.471 606.999 289.667L604.833 289.667ZM558.467 336.033V333.867C555.6 333.867 552.797 333.588 550.079 333.066L549.671 335.193L549.262 337.321C552.241 337.894 555.318 338.2 558.467 338.2V336.033ZM549.671 335.193L548.887 333.173C522.444 343.425 502.85 360.276 488.768 378.474L490.481 379.8L492.195 381.126C505.875 363.447 524.86 347.137 550.454 337.214L549.671 335.193ZM490.481 379.8V377.633H487.211V379.8V381.966H490.481V379.8ZM487.211 379.8L488.941 381.103C503.004 362.435 522.815 345.059 549.855 334.657L549.077 332.635L548.299 330.613C520.379 341.353 499.945 359.293 485.48 378.496L487.211 379.8ZM549.077 332.635L549.855 334.657L550.208 334.521L549.429 332.499L548.651 330.477L548.298 330.613L549.077 332.635ZM549.429 332.499L549.003 334.623L549.374 334.698L549.8 332.573L550.226 330.449L549.855 330.375L549.429 332.499ZM549.8 332.573L549.373 334.697C552.313 335.288 555.354 335.6 558.467 335.6V333.434V331.267C555.644 331.267 552.889 330.984 550.226 330.449L549.8 332.573ZM558.467 333.434L558.495 335.6L559.625 335.585L559.596 333.419L559.568 331.252L558.438 331.267L558.467 333.434ZM559.596 333.419L559.651 335.585C584.079 334.966 603.765 315.279 604.384 290.852L602.219 290.797L600.053 290.742C599.492 312.862 581.662 330.692 559.542 331.253L559.596 333.419ZM602.219 290.797L604.385 290.825L604.4 289.695L602.233 289.667L600.067 289.639L600.052 290.769L602.219 290.797ZM602.233 289.667H604.4C604.4 264.695 584.473 244.377 559.651 243.748L559.596 245.914L559.542 248.08C582.019 248.65 600.066 267.051 600.066 289.667H602.233ZM559.596 245.914L559.625 243.748L558.495 243.733L558.467 245.899L558.438 248.066L559.568 248.081L559.596 245.914ZM558.467 245.899V243.733C533.098 243.733 512.533 264.299 512.533 289.667H514.7H516.867C516.867 266.692 535.492 248.066 558.467 248.066V245.899ZM514.7 289.667L512.533 289.682L512.537 290.261L514.704 290.246L516.87 290.231L516.867 289.652L514.7 289.667ZM514.704 290.246L512.537 290.274C512.577 293.307 512.912 296.27 513.512 299.135L515.633 298.69L517.753 298.246C517.21 295.652 516.906 292.968 516.87 290.218L514.704 290.246ZM515.633 298.69L513.512 299.136L513.599 299.55L515.719 299.104L517.84 298.659L517.753 298.245L515.633 298.69ZM515.719 299.104L513.744 298.214L513.57 298.6L515.546 299.49L517.521 300.38L517.695 299.995L515.719 299.104ZM515.546 299.49L513.57 298.601C501.713 324.94 479.747 355.986 445.598 371.6L446.499 373.57L447.4 375.541C482.858 359.329 505.427 327.248 517.521 300.38L515.546 299.49ZM446.499 373.57L445.6 371.599L444.925 371.906L445.824 373.878L446.723 375.849L447.397 375.542L446.499 373.57ZM445.824 373.878L447.061 372.099L446.452 371.676L445.216 373.455L443.979 375.234L444.587 375.657L445.824 373.878ZM445.216 373.455L446.452 371.676C438.315 366.019 428.937 362.017 418.809 360.164L418.419 362.295L418.029 364.426C427.534 366.166 436.336 369.921 443.979 375.234L445.216 373.455ZM418.419 362.295L418.807 360.163L418.067 360.029L417.678 362.16L417.29 364.292L418.031 364.427L418.419 362.295ZM417.678 362.16L419.722 361.439L419.471 360.728L417.427 361.449L415.384 362.17L415.635 362.881L417.678 362.16ZM417.427 361.449L419.471 360.728C414.339 346.192 412.122 330.469 415.567 315.042L413.453 314.569L411.338 314.097C407.668 330.534 410.067 347.107 415.384 362.17L417.427 361.449ZM413.453 314.569L415.567 315.041L415.706 314.42L413.592 313.948L411.477 313.476L411.338 314.097L413.453 314.569ZM413.592 313.948L414.516 315.908L415.092 315.636L414.167 313.677L413.242 311.717L412.667 311.989L413.592 313.948ZM414.167 313.677L415.09 315.637C430.675 308.292 441.466 292.441 441.466 274.066H439.3H437.133C437.133 290.701 427.368 305.06 413.243 311.717L414.167 313.677ZM439.3 274.066L441.466 274.066C441.466 248.698 420.901 228.133 395.533 228.133V230.3V232.466C418.508 232.466 437.133 251.091 437.133 274.066L439.3 274.066ZM395.533 230.3L395.533 228.133C370.165 228.133 349.6 248.698 349.6 274.066L351.766 274.066L353.933 274.066C353.933 251.092 372.558 232.467 395.533 232.466L395.533 230.3ZM351.766 274.066H349.6C349.6 290.166 357.886 304.328 370.419 312.528L371.605 310.715L372.791 308.902C361.429 301.468 353.933 288.642 353.933 274.066H351.766ZM371.605 310.715L370.432 312.536L371.003 312.904L372.177 311.083L373.35 309.262L372.779 308.894L371.605 310.715ZM372.177 311.083L371.02 312.915L371.47 313.199L372.627 311.367L373.783 309.535L373.333 309.251L372.177 311.083ZM372.627 311.367L370.517 311.861L370.638 312.378L372.748 311.885L374.857 311.391L374.736 310.874L372.627 311.367ZM372.748 311.885L370.638 312.379C373.963 326.567 374.641 345.569 368.204 370.111L370.3 370.661L372.395 371.211C378.997 346.042 378.356 326.321 374.857 311.39L372.748 311.885ZM370.3 370.661L368.204 370.111L368.072 370.613L370.168 371.163L372.263 371.713L372.395 371.212L370.3 370.661ZM370.168 371.163L369.027 369.321L368.585 369.595L369.726 371.437L370.867 373.278L371.309 373.005L370.168 371.163ZM369.726 371.437L368.586 369.594C366.106 371.129 363.727 372.811 361.462 374.63L362.819 376.319L364.176 378.009C366.302 376.301 368.537 374.721 370.867 373.279L369.726 371.437ZM362.819 376.319L361.464 374.629L360.962 375.031L362.317 376.722L363.672 378.412L364.174 378.01L362.819 376.319ZM362.317 376.722L362.837 374.618L362.213 374.464L361.693 376.567L361.173 378.671L361.797 378.825L362.317 376.722ZM361.693 376.567L362.213 374.464C339.532 368.857 313.413 357.277 293.869 335.893L292.269 337.354L290.67 338.816C310.972 361.03 337.967 372.934 361.173 378.671L361.693 376.567ZM292.269 337.354L293.869 335.893L293.51 335.5L291.91 336.961L290.31 338.422L290.669 338.816L292.269 337.354ZM291.91 336.961L294.075 337.044L294.095 336.511L291.93 336.428L289.765 336.344L289.745 336.878L291.91 336.961ZM291.93 336.428L294.096 336.51C294.107 336.218 294.116 335.923 294.123 335.627L291.957 335.578L289.791 335.53C289.785 335.797 289.776 336.069 289.765 336.345L291.93 336.428ZM291.957 335.578L294.123 335.603L294.133 334.758L291.967 334.733L289.8 334.708L289.79 335.553L291.957 335.578ZM291.967 334.733H294.133C294.133 309.761 274.206 289.445 249.385 288.815L249.33 290.981L249.275 293.147C271.753 293.717 289.8 312.118 289.8 334.733H291.967ZM249.33 290.981L249.358 288.815L248.228 288.8L248.2 290.967L248.172 293.133L249.302 293.148L249.33 290.981ZM248.2 290.967L248.2 288.8C222.832 288.8 202.267 309.365 202.267 334.733H204.433H206.6C206.6 311.758 225.225 293.134 248.2 293.133L248.2 290.967ZM204.433 334.733L202.267 334.761L202.282 335.891L204.448 335.863L206.614 335.835L206.6 334.705L204.433 334.733ZM204.448 335.863L202.282 335.918C202.911 360.739 223.228 380.667 248.2 380.667L248.2 378.5L248.2 376.333C225.584 376.333 207.184 358.286 206.614 335.808L204.448 335.863ZM248.2 378.5L248.219 380.667L248.977 380.66L248.958 378.493L248.938 376.327L248.18 376.333L248.2 378.5ZM248.958 378.493L248.995 380.66C252.959 380.592 256.802 380.02 260.462 379.008L259.885 376.92L259.307 374.832C255.995 375.747 252.515 376.266 248.921 376.327L248.958 378.493ZM259.885 376.92L260.461 379.009L260.801 378.915L260.224 376.826L259.648 374.738L259.308 374.831L259.885 376.92ZM260.224 376.826L259.672 378.921L260.013 379.011L260.565 376.916L261.117 374.821L260.777 374.731L260.224 376.826ZM260.565 376.916L260.008 379.01C286.829 386.141 318.043 400.647 335.142 426.257L336.944 425.054L338.746 423.851C320.777 396.938 288.325 382.055 261.122 374.822L260.565 376.916ZM336.944 425.054L335.144 426.259L335.387 426.622L337.187 425.417L338.988 424.212L338.745 423.849L336.944 425.054ZM337.187 425.417L335.025 425.286L334.998 425.723L337.161 425.854L339.324 425.984L339.35 425.548L337.187 425.417ZM337.161 425.854L334.998 425.723C334.912 427.159 334.866 428.607 334.866 430.066L337.033 430.066L339.2 430.066C339.2 428.697 339.242 427.336 339.324 425.984L337.161 425.854ZM337.033 430.066H334.866C334.866 436.504 335.722 442.743 337.327 448.675L339.419 448.109L341.51 447.543C340.004 441.977 339.2 436.118 339.2 430.066H337.033ZM339.419 448.109L337.327 448.676L337.489 449.274L339.581 448.708L341.672 448.142L341.51 447.543L339.419 448.109ZM339.581 448.708L337.824 447.439L337.461 447.942L339.218 449.211L340.974 450.48L341.337 449.977L339.581 448.708ZM339.218 449.211L337.461 447.942C322.58 468.533 302.077 479.425 283.371 484.525L283.941 486.615L284.511 488.706C303.93 483.411 325.381 472.055 340.974 450.48L339.218 449.211ZM283.941 486.615L283.371 484.525L282.913 484.65L283.483 486.74L284.054 488.83L284.512 488.705L283.941 486.615ZM283.483 486.74L284.393 484.774L283.962 484.575L283.052 486.541L282.143 488.507L282.574 488.707L283.483 486.74ZM283.052 486.541L283.964 484.575C278.279 481.94 271.966 480.43 265.312 480.338L265.282 482.505L265.252 484.671C271.284 484.755 276.997 486.122 282.141 488.507L283.052 486.541ZM265.282 482.505L265.299 480.338L264.684 480.333L264.667 482.5L264.65 484.667L265.265 484.671L265.282 482.505ZM264.667 482.5L264.667 480.333C239.299 480.333 218.733 500.898 218.733 526.267H220.899H223.066C223.066 503.292 241.692 484.667 264.667 484.667L264.667 482.5ZM220.899 526.267H218.733C218.733 551.635 239.299 572.2 264.667 572.2L264.667 570.033L264.667 567.867C241.692 567.866 223.066 549.241 223.066 526.267H220.899ZM264.667 570.033L264.695 572.2L265.825 572.185L265.797 570.019L265.769 567.852L264.639 567.867L264.667 570.033ZM265.797 570.019L265.852 572.185C290.673 571.555 310.6 551.239 310.6 526.267H308.433H306.267C306.267 548.882 288.219 567.283 265.742 567.853L265.797 570.019ZM308.433 526.267H310.6C310.6 524.986 310.544 523.719 310.441 522.469L308.282 522.646L306.123 522.822C306.216 523.964 306.267 525.113 306.267 526.267H308.433ZM308.282 522.646L310.442 522.471L310.393 521.867L308.233 522.041L306.074 522.215L306.122 522.82L308.282 522.646ZM308.233 522.041L309.756 523.582L310.187 523.156L308.664 521.615L307.141 520.074L306.71 520.5L308.233 522.041ZM308.664 521.615L310.187 523.156C331.819 501.762 349.535 490.986 363.255 486.418L362.571 484.362L361.887 482.307C347.327 487.154 329.059 498.397 307.14 520.075L308.664 521.615ZM362.571 484.362L363.254 486.418L363.913 486.2L363.229 484.144L362.546 482.087L361.888 482.306L362.571 484.362ZM363.229 484.144L361.902 485.856L362.449 486.281L363.777 484.568L365.105 482.856L364.557 482.431L363.229 484.144ZM363.777 484.568L362.45 486.281C367.157 489.927 372.335 492.994 377.876 495.378L378.732 493.388L379.588 491.397C374.386 489.16 369.525 486.28 365.104 482.855L363.777 484.568ZM378.732 493.388L377.876 495.378L378.548 495.667L379.404 493.677L380.26 491.686L379.588 491.397L378.732 493.388ZM379.404 493.677L377.258 493.978L377.36 494.702L379.506 494.4L381.651 494.099L381.55 493.376L379.404 493.677ZM379.506 494.4L377.36 494.703C382.375 530.256 367.858 561.399 351.052 582.963L352.761 584.295L354.47 585.627C371.712 563.503 386.885 531.205 381.651 494.098L379.506 494.4ZM352.761 584.295L351.051 582.965L350.819 583.263L352.53 584.593L354.241 585.922L354.472 585.624L352.761 584.295ZM352.53 584.593L351.801 582.552L351.446 582.679L352.175 584.72L352.903 586.76L353.259 586.633L352.53 584.593ZM352.175 584.72L351.444 582.68C333.699 589.036 320.999 606 320.999 625.934H323.166H325.332C325.332 607.887 336.828 592.518 352.905 586.76L352.175 584.72ZM323.166 625.934L320.999 625.962L321.014 627.092L323.18 627.063L325.347 627.035L325.332 625.906L323.166 625.934ZM323.18 627.063L321.014 627.118C321.644 651.94 341.961 671.867 366.933 671.867L366.933 669.7L366.933 667.534C344.318 667.533 325.916 649.486 325.346 627.009L323.18 627.063ZM366.933 669.7L366.961 671.867L368.091 671.852L368.063 669.686L368.035 667.519L366.905 667.534L366.933 669.7ZM368.063 669.686L368.118 671.852C392.546 671.232 412.232 651.546 412.851 627.118L410.685 627.063L408.519 627.009C407.959 649.129 390.129 666.959 368.008 667.52L368.063 669.686ZM410.685 627.063L412.852 627.092L412.866 625.962L410.7 625.934L408.533 625.906L408.519 627.035L410.685 627.063ZM410.7 625.934H412.867C412.867 614.818 408.917 604.623 402.346 596.678L400.677 598.059L399.007 599.439C404.959 606.636 408.533 615.863 408.533 625.934H410.7ZM400.677 598.059L402.348 596.68L402.076 596.351L400.405 597.729L398.734 599.108L399.005 599.437L400.677 598.059ZM400.405 597.729L402.568 597.605L402.544 597.18L400.381 597.304L398.217 597.428L398.242 597.854L400.405 597.729ZM400.381 597.304L402.544 597.182C400.232 556.203 411.748 522.132 425.164 498.233L423.275 497.172L421.386 496.111C407.637 520.602 395.851 555.487 398.217 597.426L400.381 597.304ZM423.275 497.172L425.164 498.233L425.431 497.758L423.542 496.697L421.653 495.636L421.386 496.111L423.275 497.172ZM423.542 496.697L424.109 498.788L424.635 498.646L424.067 496.555L423.5 494.464L422.974 494.606L423.542 496.697ZM424.067 496.555L424.636 498.645C426.083 498.252 427.512 497.812 428.92 497.332L428.219 495.281L427.519 493.231C426.197 493.683 424.855 494.095 423.498 494.464L424.067 496.555ZM428.219 495.281L428.921 497.331L429.549 497.116L428.847 495.066L428.146 493.016L427.518 493.231L428.219 495.281ZM428.847 495.066V497.233H428.959V495.066V492.9H428.847V495.066ZM428.959 495.066L427.537 496.701L428.07 497.165L429.492 495.53L430.914 493.896L430.381 493.432L428.959 495.066ZM429.492 495.53L428.07 497.165C441.605 508.934 457.44 527.36 470.731 555.051L472.684 554.113L474.638 553.176C461.084 524.938 444.882 506.041 430.914 493.895L429.492 495.53ZM472.684 554.113L470.732 555.052L470.979 555.566L472.931 554.627L474.884 553.688L474.637 553.174L472.684 554.113ZM472.931 554.627L470.919 553.825L470.708 554.354L472.72 555.156L474.733 555.958L474.944 555.429L472.931 554.627ZM472.72 555.156L470.707 554.355C468.617 559.608 467.466 565.337 467.466 571.333L469.633 571.333L471.799 571.333C471.799 565.896 472.842 560.71 474.734 555.957L472.72 555.156ZM469.633 571.333H467.466C467.466 596.701 488.032 617.267 513.4 617.267V615.101V612.934C490.425 612.934 471.799 594.308 471.799 571.333H469.633ZM513.4 615.101L513.428 617.267L514.558 617.252L514.53 615.086L514.502 612.919L513.372 612.934L513.4 615.101ZM514.53 615.086L514.585 617.252C539.406 616.623 559.333 596.305 559.333 571.333H557.167H555C555 593.949 536.953 612.35 514.475 612.92L514.53 615.086ZM557.167 571.333L559.333 571.333C559.333 546.781 540.07 526.728 515.832 525.463L515.719 527.627L515.607 529.791C537.554 530.936 555 549.098 555 571.333L557.167 571.333ZM515.719 527.627L515.828 525.463L515.518 525.447L515.409 527.611L515.3 529.775L515.611 529.791L515.719 527.627ZM515.409 527.611L516.488 525.732L516.217 525.577L515.138 527.456L514.06 529.335L514.33 529.49L515.409 527.611ZM515.138 527.456L516.218 525.578C502.887 517.912 487.634 507.055 474.947 493.581L473.37 495.066L471.792 496.552C484.845 510.414 500.466 521.519 514.058 529.334L515.138 527.456ZM473.37 495.066V497.233H476.971V495.066V492.9H473.37V495.066ZM476.971 495.066L475.42 496.579C487.785 509.262 502.288 519.539 515.094 526.928L516.177 525.052L517.259 523.175C504.705 515.931 490.545 505.885 478.523 493.554L476.971 495.066ZM516.177 525.052L516.049 527.215C539.226 528.584 557.6 547.812 557.6 571.333H559.766H561.933C561.933 545.504 541.757 524.393 516.304 522.889L516.177 525.052ZM559.766 571.333L557.6 571.319L557.596 571.918L559.762 571.933L561.929 571.947L561.933 571.347L559.766 571.333ZM559.762 571.933L557.596 571.905C557.29 596.052 537.62 615.533 513.4 615.534L513.4 617.7L513.4 619.867C539.995 619.867 561.593 598.475 561.929 571.96L559.762 571.933ZM513.4 617.7V615.534C489.18 615.533 469.509 596.052 469.203 571.905L467.037 571.933L464.87 571.96C465.206 598.476 486.805 619.867 513.4 619.867V617.7ZM467.037 571.933L469.203 571.918L469.2 571.319L467.033 571.333L464.866 571.347L464.87 571.947L467.037 571.933ZM467.033 571.333H469.2C469.2 565.756 470.235 560.423 472.119 555.51L470.096 554.734L468.073 553.958C466.003 559.357 464.866 565.216 464.866 571.333H467.033ZM470.096 554.734L472.047 553.792C458.886 526.545 443.268 508.217 429.771 496.353L428.341 497.98L426.91 499.608C439.984 511.1 455.242 528.966 468.145 555.677L470.096 554.734ZM428.341 497.98L427.662 495.923C426.683 496.246 425.695 496.547 424.697 496.827L425.282 498.913L425.867 500.999C426.927 500.702 427.978 500.381 429.019 500.038L428.341 497.98ZM425.282 498.913L423.389 497.858C410 521.887 398.575 555.952 400.791 596.857L402.955 596.74L405.118 596.623C402.953 556.668 414.112 523.409 427.175 499.968L425.282 498.913ZM402.955 596.74L401.272 598.105C407.438 605.704 411.133 615.386 411.133 625.934H413.3H415.466C415.466 614.355 411.406 603.717 404.637 595.375L402.955 596.74ZM413.3 625.934H411.133C411.133 650.344 391.344 670.133 366.933 670.133L366.933 672.3L366.933 674.466C393.737 674.466 415.466 652.738 415.466 625.934H413.3ZM366.933 672.3L366.933 670.133C342.523 670.133 322.733 650.344 322.733 625.934H320.566H318.399C318.4 652.738 340.129 674.466 366.933 674.466L366.933 672.3ZM320.566 625.934H322.733C322.733 606.885 334.785 590.651 351.683 584.439L350.935 582.405L350.188 580.372C331.641 587.19 318.399 605.009 318.399 625.934H320.566ZM350.935 582.405L352.648 583.733C369.417 562.102 383.955 530.899 379.174 495.19L377.026 495.478L374.879 495.765C379.455 529.941 365.559 560.005 349.223 581.078L350.935 582.405ZM377.026 495.478L377.903 493.496C372.956 491.307 368.314 488.557 364.056 485.325L362.746 487.051L361.436 488.777C365.959 492.21 370.892 495.132 376.149 497.459L377.026 495.478ZM362.746 487.051L362.041 485.002C348.18 489.772 330.61 500.608 309.397 521.501L310.918 523.045L312.438 524.589C333.367 503.976 350.4 493.59 363.451 489.1L362.746 487.051ZM310.918 523.045L308.756 523.195C308.827 524.213 308.866 525.237 308.866 526.267H311.033H313.2C313.2 525.127 313.156 524.003 313.079 522.895L310.918 523.045ZM311.033 526.267L308.866 526.252L308.862 526.852L311.029 526.866L313.196 526.88L313.2 526.281L311.033 526.267ZM311.029 526.866L308.863 526.839C308.557 550.986 288.887 570.466 264.667 570.466L264.667 572.633L264.667 574.799C291.261 574.799 312.859 553.409 313.196 526.894L311.029 526.866ZM264.667 572.633L264.667 570.466C240.447 570.466 220.776 550.986 220.47 526.839L218.303 526.866L216.137 526.894C216.473 553.409 238.072 574.799 264.667 574.799L264.667 572.633ZM218.303 526.866L220.47 526.852L220.466 526.252L218.3 526.267L216.133 526.281L216.137 526.88L218.303 526.866ZM218.3 526.267H220.466C220.466 501.856 240.256 482.067 264.667 482.067L264.667 479.9L264.667 477.734C237.863 477.734 216.133 499.462 216.133 526.267H218.3ZM264.667 479.9L264.667 482.067C271.137 482.067 277.28 483.459 282.817 485.957L283.708 483.981L284.599 482.006C278.514 479.262 271.765 477.734 264.667 477.734L264.667 479.9ZM283.708 483.981L284.287 486.069C303.001 480.882 323.485 469.95 338.497 449.46L336.749 448.18L335.001 446.899C320.693 466.428 301.139 476.901 283.129 481.894L283.708 483.981ZM336.749 448.18L338.845 447.632C337.475 442.386 336.703 436.897 336.609 431.242L334.443 431.278L332.277 431.314C332.376 437.317 333.196 443.15 334.652 448.727L336.749 448.18ZM334.443 431.278L336.61 431.261L336.6 430.049L334.433 430.066L332.267 430.084L332.277 431.296L334.443 431.278ZM334.433 430.066L336.6 430.066C336.6 428.79 336.636 427.522 336.704 426.261L334.541 426.144L332.377 426.026C332.305 427.362 332.267 428.709 332.267 430.066L334.433 430.066ZM334.541 426.144L336.336 424.931C318.911 399.136 287.563 384.596 260.789 377.426L260.228 379.519L259.668 381.611C286.057 388.679 316.186 402.843 332.745 427.356L334.541 426.144ZM260.228 379.519L259.667 377.426C256.01 378.406 252.167 378.933 248.2 378.933L248.2 381.1L248.2 383.266C252.552 383.266 256.772 382.688 260.789 381.611L260.228 379.519ZM248.2 381.1L248.2 378.933C223.789 378.933 204 359.144 204 334.733H201.834H199.667C199.667 361.538 221.396 383.266 248.2 383.266L248.2 381.1ZM201.834 334.733H204C204 310.323 223.789 290.534 248.2 290.534L248.2 288.367L248.2 286.201C221.396 286.201 199.667 307.929 199.667 334.733H201.834ZM248.2 288.367L248.2 290.534C272.611 290.534 292.399 310.322 292.399 334.733H294.566H296.733C296.733 307.929 275.004 286.201 248.2 286.201L248.2 288.367ZM294.566 334.733H292.399C292.399 335.123 292.391 335.517 292.379 335.921L294.545 335.984L296.71 336.048C296.723 335.626 296.733 335.185 296.733 334.733H294.566ZM294.545 335.984L292.952 337.454C312.579 358.723 338.566 370.307 361.174 375.989L361.702 373.888L362.23 371.786C340.144 366.236 315.015 354.974 296.137 334.515L294.545 335.984ZM361.702 373.888L363.043 375.589C364.971 374.07 366.981 372.65 369.066 371.339L367.912 369.505L366.758 367.671C364.543 369.064 362.408 370.572 360.361 372.186L361.702 373.888ZM367.912 369.505L370.009 370.048C376.296 345.792 375.71 326.832 372.443 312.505L370.331 312.986L368.218 313.468C371.319 327.065 371.942 345.321 365.814 368.961L367.912 369.505ZM370.331 312.986L371.51 311.169C359.558 303.413 351.588 290.048 351.339 274.803L349.173 274.839L347.006 274.874C347.28 291.621 356.039 306.296 369.151 314.804L370.331 312.986ZM349.173 274.839L351.339 274.822L351.333 274.05L349.167 274.066L347 274.083L347.006 274.855L349.173 274.839ZM349.167 274.066L351.333 274.066C351.334 249.656 371.122 229.867 395.533 229.867L395.533 227.7L395.533 225.534C368.729 225.534 347 247.262 347 274.066L349.167 274.066ZM395.533 227.7L395.519 229.867L396.118 229.871L396.133 227.704L396.147 225.537L395.547 225.534L395.533 227.7ZM192.593 397.575L192.538 399.741C206.586 400.097 217.866 411.599 217.866 425.733H220.033H222.2C222.2 409.242 209.04 395.824 192.647 395.409L192.593 397.575ZM220.033 425.733H217.866C217.866 439.868 206.586 451.369 192.538 451.725L192.593 453.891L192.647 456.057C209.039 455.642 222.2 442.225 222.2 425.733H220.033ZM192.593 453.891L192.566 451.724L191.84 451.733L191.866 453.899L191.892 456.066L192.619 456.057L192.593 453.891ZM191.866 453.899L191.866 451.733C177.507 451.732 165.867 440.092 165.867 425.733H163.7H161.533C161.533 442.486 175.114 456.066 191.866 456.066L191.866 453.899ZM163.7 425.733H165.867C165.867 411.374 177.507 399.733 191.866 399.733L191.866 397.566L191.866 395.4C175.114 395.4 161.533 408.981 161.533 425.733H163.7ZM191.866 397.566L191.84 399.733L192.566 399.742L192.593 397.575L192.619 395.409L191.892 395.4L191.866 397.566ZM191.866 400.166L191.866 397.999C176.55 398 164.133 410.417 164.133 425.733H166.3H168.466C168.466 412.81 178.943 402.333 191.866 402.333L191.866 400.166ZM166.3 425.733L164.133 425.762L164.142 426.422L166.308 426.394L168.475 426.365L168.466 425.705L166.3 425.733ZM166.308 426.394L164.142 426.448C164.522 441.435 176.789 453.466 191.866 453.466L191.866 451.3L191.866 449.133C179.145 449.133 168.795 438.981 168.474 426.339L166.308 426.394ZM191.866 451.3V453.466C207.183 453.466 219.6 441.05 219.6 425.733H217.433H215.267C215.267 438.657 204.79 449.133 191.866 449.133V451.3ZM217.433 425.733L219.6 425.705L219.591 425.044L217.425 425.073L215.258 425.102L215.267 425.762L217.433 425.733ZM217.425 425.073L219.591 425.018C219.211 410.032 206.944 397.999 191.866 397.999V400.166V402.333C204.587 402.333 214.938 412.485 215.259 425.128L217.425 425.073Z" fill="white"/>
<path d="M396.504 404.152C403.368 404.152 408.915 406.336 413.144 410.704C417.373 415.002 419.488 421.034 419.488 428.8V462.6H404.928V430.776C404.928 426.2 403.784 422.698 401.496 420.272C399.208 417.776 396.088 416.528 392.136 416.528C388.115 416.528 384.925 417.776 382.568 420.272C380.28 422.698 379.136 426.2 379.136 430.776V462.6H364.576V404.984H379.136V412.16C381.077 409.664 383.539 407.722 386.52 406.336C389.571 404.88 392.899 404.152 396.504 404.152ZM486.894 432.544C486.894 434.624 486.755 436.496 486.478 438.16H444.358C444.704 442.32 446.16 445.578 448.726 447.936C451.291 450.293 454.446 451.472 458.19 451.472C463.598 451.472 467.446 449.149 469.734 444.504H485.438C483.774 450.05 480.584 454.626 475.87 458.232C471.155 461.768 465.366 463.536 458.502 463.536C452.955 463.536 447.963 462.322 443.526 459.896C439.158 457.4 435.726 453.898 433.23 449.392C430.803 444.885 429.59 439.685 429.59 433.792C429.59 427.829 430.803 422.594 433.23 418.088C435.656 413.581 439.054 410.114 443.422 407.688C447.79 405.261 452.816 404.048 458.502 404.048C463.979 404.048 468.867 405.226 473.166 407.584C477.534 409.941 480.896 413.304 483.254 417.672C485.68 421.97 486.894 426.928 486.894 432.544ZM471.814 428.384C471.744 424.64 470.392 421.658 467.758 419.44C465.123 417.152 461.899 416.008 458.086 416.008C454.48 416.008 451.43 417.117 448.934 419.336C446.507 421.485 445.016 424.501 444.462 428.384H471.814ZM514.473 416.944V444.816C514.473 446.757 514.924 448.178 515.825 449.08C516.796 449.912 518.391 450.328 520.609 450.328H527.369V462.6H518.217C505.945 462.6 499.809 456.637 499.809 444.712V416.944H492.945V404.984H499.809V390.736H514.473V404.984H527.369V416.944H514.473ZM552.402 385.64V462.6H537.842V385.64H552.402ZM563.043 433.584C563.043 427.76 564.187 422.594 566.475 418.088C568.832 413.581 571.987 410.114 575.939 407.688C579.96 405.261 584.432 404.048 589.355 404.048C593.654 404.048 597.398 404.914 600.587 406.648C603.846 408.381 606.446 410.565 608.387 413.2V404.984H623.051V462.6H608.387V454.176C606.515 456.88 603.915 459.133 600.587 460.936C597.328 462.669 593.55 463.536 589.251 463.536C584.398 463.536 579.96 462.288 575.939 459.792C571.987 457.296 568.832 453.794 566.475 449.288C564.187 444.712 563.043 439.477 563.043 433.584ZM608.387 433.792C608.387 430.256 607.694 427.24 606.307 424.744C604.92 422.178 603.048 420.237 600.691 418.92C598.334 417.533 595.803 416.84 593.099 416.84C590.395 416.84 587.899 417.498 585.611 418.816C583.323 420.133 581.451 422.074 579.995 424.64C578.608 427.136 577.915 430.117 577.915 433.584C577.915 437.05 578.608 440.101 579.995 442.736C581.451 445.301 583.323 447.277 585.611 448.664C587.968 450.05 590.464 450.744 593.099 450.744C595.803 450.744 598.334 450.085 600.691 448.768C603.048 447.381 604.92 445.44 606.307 442.944C607.694 440.378 608.387 437.328 608.387 433.792ZM651.831 413.408C653.703 410.634 656.269 408.381 659.527 406.648C662.855 404.914 666.634 404.048 670.863 404.048C675.786 404.048 680.223 405.261 684.175 407.688C688.197 410.114 691.351 413.581 693.639 418.088C695.997 422.525 697.175 427.69 697.175 433.584C697.175 439.477 695.997 444.712 693.639 449.288C691.351 453.794 688.197 457.296 684.175 459.792C680.223 462.288 675.786 463.536 670.863 463.536C666.565 463.536 662.786 462.704 659.527 461.04C656.338 459.306 653.773 457.088 651.831 454.384V462.6H637.271V385.64H651.831V413.408ZM682.303 433.584C682.303 430.117 681.575 427.136 680.119 424.64C678.733 422.074 676.861 420.133 674.503 418.816C672.215 417.498 669.719 416.84 667.015 416.84C664.381 416.84 661.885 417.533 659.527 418.92C657.239 420.237 655.367 422.178 653.911 424.744C652.525 427.309 651.831 430.325 651.831 433.792C651.831 437.258 652.525 440.274 653.911 442.84C655.367 445.405 657.239 447.381 659.527 448.768C661.885 450.085 664.381 450.744 667.015 450.744C669.719 450.744 672.215 450.05 674.503 448.664C676.861 447.277 678.733 445.301 680.119 442.736C681.575 440.17 682.303 437.12 682.303 433.584Z" fill="white"/>
</svg>
